<svg viewBox="0 0 903.6666259765625 400" xmlns="http://www.w3.org/2000/svg"><g><g><g><g><g><line x1="51.53200149536133" y1="376.5999994277954" x2="46.53200149536133" y2="376.5999994277954" style="visibility: inherit;" fill="rgb(0, 0, 0)" stroke="rgb(204, 204, 204)" stroke-width="1px"></line><line x1="51.53200149536133" y1="342.36363584345037" x2="46.53200149536133" y2="342.36363584345037" style="visibility: inherit;" fill="rgb(0, 0, 0)" stroke="rgb(204, 204, 204)" stroke-width="1px"></line><line x1="51.53200149536133" y1="308.1272722591053" x2="46.53200149536133" y2="308.1272722591053" style="visibility: inherit;" fill="rgb(0, 0, 0)" stroke="rgb(204, 204, 204)" stroke-width="1px"></line><line x1="51.53200149536133" y1="273.8909086747603" x2="46.53200149536133" y2="273.8909086747603" style="visibility: inherit;" fill="rgb(0, 0, 0)" stroke="rgb(204, 204, 204)" stroke-width="1px"></line><line x1="51.53200149536133" y1="239.65454509041527" x2="46.53200149536133" y2="239.65454509041527" style="visibility: inherit;" fill="rgb(0, 0, 0)" stroke="rgb(204, 204, 204)" stroke-width="1px"></line><line x1="51.53200149536133" y1="205.4181815060702" x2="46.53200149536133" y2="205.4181815060702" style="visibility: inherit;" fill="rgb(0, 0, 0)" stroke="rgb(204, 204, 204)" stroke-width="1px"></line><line x1="51.53200149536133" y1="171.1818179217252" x2="46.53200149536133" y2="171.1818179217252" style="visibility: inherit;" fill="rgb(0, 0, 0)" stroke="rgb(204, 204, 204)" stroke-width="1px"></line><line x1="51.53200149536133" y1="136.9454543373801" x2="46.53200149536133" y2="136.9454543373801" style="visibility: inherit;" fill="rgb(0, 0, 0)" stroke="rgb(204, 204, 204)" stroke-width="1px"></line><line x1="51.53200149536133" y1="102.7090907530351" x2="46.53200149536133" y2="102.7090907530351" style="visibility: inherit;" fill="rgb(0, 0, 0)" stroke="rgb(204, 204, 204)" stroke-width="1px"></line><line x1="51.53200149536133" y1="68.4727271686901" x2="46.53200149536133" y2="68.4727271686901" style="visibility: inherit;" fill="rgb(0, 0, 0)" stroke="rgb(204, 204, 204)" stroke-width="1px"></line><line x1="51.53200149536133" y1="34.23636358434501" x2="46.53200149536133" y2="34.23636358434501" style="visibility: inherit;" fill="rgb(0, 0, 0)" stroke="rgb(204, 204, 204)" stroke-width="1px"></line><line x1="51.53200149536133" y1="0" x2="46.53200149536133" y2="0" style="visibility: inherit;" fill="rgb(0, 0, 0)" stroke="rgb(204, 204, 204)" stroke-width="1px"></line></g><g transform="translate(41.53200149536133, 0)"><text style="text-anchor: end; visibility: hidden; font-family: Roboto, sans-serif; font-size: 12px; font-weight: 200;" x="0" y="376.5999994277954" dx="0em" dy="0.3em" fill="rgb(255, 255, 255)" stroke="none" stroke-width="1px">0</text><text style="text-anchor: end; visibility: inherit; font-family: Roboto, sans-serif; font-size: 12px; font-weight: 200;" x="0" y="342.36363584345037" dx="0em" dy="0.3em" fill="rgb(255, 255, 255)" stroke="none" stroke-width="1px">0.02</text><text style="text-anchor: end; visibility: inherit; font-family: Roboto, sans-serif; font-size: 12px; font-weight: 200;" x="0" y="308.1272722591053" dx="0em" dy="0.3em" fill="rgb(255, 255, 255)" stroke="none" stroke-width="1px">0.04</text><text style="text-anchor: end; visibility: inherit; font-family: Roboto, sans-serif; font-size: 12px; font-weight: 200;" x="0" y="273.8909086747603" dx="0em" dy="0.3em" fill="rgb(255, 255, 255)" stroke="none" stroke-width="1px">0.06</text><text style="text-anchor: end; visibility: inherit; font-family: Roboto, sans-serif; font-size: 12px; font-weight: 200;" x="0" y="239.65454509041527" dx="0em" dy="0.3em" fill="rgb(255, 255, 255)" stroke="none" stroke-width="1px">0.08</text><text style="text-anchor: end; visibility: inherit; font-family: Roboto, sans-serif; font-size: 12px; font-weight: 200;" x="0" y="205.4181815060702" dx="0em" dy="0.3em" fill="rgb(255, 255, 255)" stroke="none" stroke-width="1px">0.1</text><text style="text-anchor: end; visibility: inherit; font-family: Roboto, sans-serif; font-size: 12px; font-weight: 200;" x="0" y="171.1818179217252" dx="0em" dy="0.3em" fill="rgb(255, 255, 255)" stroke="none" stroke-width="1px">0.12</text><text style="text-anchor: end; visibility: inherit; font-family: Roboto, sans-serif; font-size: 12px; font-weight: 200;" x="0" y="136.9454543373801" dx="0em" dy="0.3em" fill="rgb(255, 255, 255)" stroke="none" stroke-width="1px">0.14</text><text style="text-anchor: end; visibility: inherit; font-family: Roboto, sans-serif; font-size: 12px; font-weight: 200;" x="0" y="102.7090907530351" dx="0em" dy="0.3em" fill="rgb(255, 255, 255)" stroke="none" stroke-width="1px">0.16</text><text style="text-anchor: end; visibility: inherit; font-family: Roboto, sans-serif; font-size: 12px; font-weight: 200;" x="0" y="68.4727271686901" dx="0em" dy="0.3em" fill="rgb(255, 255, 255)" stroke="none" stroke-width="1px">0.18</text><text style="text-anchor: end; visibility: inherit; font-family: Roboto, sans-serif; font-size: 12px; font-weight: 200;" x="0" y="34.23636358434501" dx="0em" dy="0.3em" fill="rgb(255, 255, 255)" stroke="none" stroke-width="1px">0.2</text><text style="text-anchor: end; visibility: hidden; font-family: Roboto, sans-serif; font-size: 12px; font-weight: 200;" x="0" y="0" dx="0em" dy="0.3em" fill="rgb(255, 255, 255)" stroke="none" stroke-width="1px">0.22</text></g><line x1="51.53200149536133" y1="0" x2="51.53200149536133" y2="376.5999994277954" fill="rgb(0, 0, 0)" stroke="rgb(204, 204, 204)" stroke-width="1px"></line></g></g><g transform="translate(51, 0)" clip-path="url(#clip_0)"><clipPath id="clip_0"><rect width="852" height="376"></rect></clipPath><g><g><g><line x1="0" y1="0" x2="0" y2="376.5999994277954" fill="rgb(0, 0, 0)" stroke="rgb(189, 189, 189)" stroke-width="1px" opacity="0.25"></line><line x1="85.21349985046388" y1="0" x2="85.21349985046388" y2="376.5999994277954" fill="rgb(0, 0, 0)" stroke="rgb(189, 189, 189)" stroke-width="1px" opacity="0.25"></line><line x1="170.42699970092775" y1="0" x2="170.42699970092775" y2="376.5999994277954" fill="rgb(0, 0, 0)" stroke="rgb(189, 189, 189)" stroke-width="1px" opacity="0.25"></line><line x1="255.6404995513916" y1="0" x2="255.6404995513916" y2="376.5999994277954" fill="rgb(0, 0, 0)" stroke="rgb(189, 189, 189)" stroke-width="1px" opacity="0.25"></line><line x1="340.8539994018555" y1="0" x2="340.8539994018555" y2="376.5999994277954" fill="rgb(0, 0, 0)" stroke="rgb(189, 189, 189)" stroke-width="1px" opacity="0.25"></line><line x1="426.06749925231935" y1="0" x2="426.06749925231935" y2="376.5999994277954" fill="rgb(0, 0, 0)" stroke="rgb(189, 189, 189)" stroke-width="1px" opacity="0.25"></line><line x1="511.2809991027832" y1="0" x2="511.2809991027832" y2="376.5999994277954" fill="rgb(0, 0, 0)" stroke="rgb(189, 189, 189)" stroke-width="1px" opacity="0.25"></line><line x1="596.4944989532471" y1="0" x2="596.4944989532471" y2="376.5999994277954" fill="rgb(0, 0, 0)" stroke="rgb(189, 189, 189)" stroke-width="1px" opacity="0.25"></line><line x1="681.707998803711" y1="0" x2="681.707998803711" y2="376.5999994277954" fill="rgb(0, 0, 0)" stroke="rgb(189, 189, 189)" stroke-width="1px" opacity="0.25"></line><line x1="766.9214986541748" y1="0" x2="766.9214986541748" y2="376.5999994277954" fill="rgb(0, 0, 0)" stroke="rgb(189, 189, 189)" stroke-width="1px" opacity="0.25"></line><line x1="852.1349985046387" y1="0" x2="852.1349985046387" y2="376.5999994277954" fill="rgb(0, 0, 0)" stroke="rgb(189, 189, 189)" stroke-width="1px" opacity="0.25"></line></g><g><line x1="0" y1="376.5999994277954" x2="852.1349985046387" y2="376.5999994277954" fill="rgb(0, 0, 0)" stroke="rgb(189, 189, 189)" stroke-width="1px" opacity="0.25"></line><line x1="0" y1="342.36363584345037" x2="852.1349985046387" y2="342.36363584345037" fill="rgb(0, 0, 0)" stroke="rgb(189, 189, 189)" stroke-width="1px" opacity="0.25"></line><line x1="0" y1="308.1272722591053" x2="852.1349985046387" y2="308.1272722591053" fill="rgb(0, 0, 0)" stroke="rgb(189, 189, 189)" stroke-width="1px" opacity="0.25"></line><line x1="0" y1="273.8909086747603" x2="852.1349985046387" y2="273.8909086747603" fill="rgb(0, 0, 0)" stroke="rgb(189, 189, 189)" stroke-width="1px" opacity="0.25"></line><line x1="0" y1="239.65454509041527" x2="852.1349985046387" y2="239.65454509041527" fill="rgb(0, 0, 0)" stroke="rgb(189, 189, 189)" stroke-width="1px" opacity="0.25"></line><line x1="0" y1="205.4181815060702" x2="852.1349985046387" y2="205.4181815060702" fill="rgb(0, 0, 0)" stroke="rgb(189, 189, 189)" stroke-width="1px" opacity="0.25"></line><line x1="0" y1="171.1818179217252" x2="852.1349985046387" y2="171.1818179217252" fill="rgb(0, 0, 0)" stroke="rgb(189, 189, 189)" stroke-width="1px" opacity="0.25"></line><line x1="0" y1="136.9454543373801" x2="852.1349985046387" y2="136.9454543373801" fill="rgb(0, 0, 0)" stroke="rgb(189, 189, 189)" stroke-width="1px" opacity="0.25"></line><line x1="0" y1="102.7090907530351" x2="852.1349985046387" y2="102.7090907530351" fill="rgb(0, 0, 0)" stroke="rgb(189, 189, 189)" stroke-width="1px" opacity="0.25"></line><line x1="0" y1="68.4727271686901" x2="852.1349985046387" y2="68.4727271686901" fill="rgb(0, 0, 0)" stroke="rgb(189, 189, 189)" stroke-width="1px" opacity="0.25"></line><line x1="0" y1="34.23636358434501" x2="852.1349985046387" y2="34.23636358434501" fill="rgb(0, 0, 0)" stroke="rgb(189, 189, 189)" stroke-width="1px" opacity="0.25"></line><line x1="0" y1="0" x2="852.1349985046387" y2="0" fill="rgb(0, 0, 0)" stroke="rgb(189, 189, 189)" stroke-width="1px" opacity="0.25"></line></g></g></g><g><g><line x1="0" y1="376.5999994277954" x2="852.1349985046387" y2="376.5999994277954" fill="rgb(0, 0, 0)" stroke="rgb(153, 153, 153)" stroke-width="1.5px"></line></g></g><g><g><line x1="85.21349985046388" y1="0" x2="85.21349985046388" y2="376.5999994277954" fill="rgb(0, 0, 0)" stroke="rgb(153, 153, 153)" stroke-width="1.5px"></line></g></g><g><g><g><g><g><path style="fill: none;" stroke="rgb(238, 51, 119)" stroke-width="2px" d="M151.21135548464812,-5.365149435434639L153.34169298090973,2.9442362110984943L155.47203047717133,5.4085098829459834L157.60236797343293,1.390675213819152L159.73270546969454,6.254245863838999L161.86304296595614,8.454880006083275L163.99338046221771,14.76383409725842L166.12371795847932,20.57090973149872L168.2540554547409,22.431920333520385L170.3843929510025,25.03036321585864L172.5147304472641,25.515350838864016L174.6450679435257,31.123080244086744L176.7754054397873,37.89348771207261L178.90574293604888,41.9926629667955L181.03608043231048,44.81923918117001L183.1664179285721,40.65864385312163L185.2967554248337,42.455550274642185L187.4270929210953,44.14008663162724L189.5574304173569,48.185078675134946L191.68776791361847,53.739724517025L193.81810540988008,56.368381292616924L195.94844290614165,58.22813571381468L198.07878040240325,61.32756751794509L200.20911789866486,62.948200339636756L202.33945539492646,67.93286845677018L204.46979289118806,66.30998333853348L206.60013038744964,71.16346303859211L208.73046788371124,73.77317233811179L210.86080537997285,75.63509807654805L212.99114287623445,79.59668085483794L215.12148037249605,83.8742649851939L217.25181786875766,88.26965648947065L219.38215536501923,90.90434152344123L221.51249286128083,93.83422320999819L223.64283035754244,92.8641887984869L225.77316785380404,87.65006943004678L227.90350535006564,91.9628857821556L230.03384284632725,88.15738540827411L232.16418034258885,86.43870688058763L234.29451783885042,86.99861750394453L236.424855335112,86.38808413042062L238.55519283137357,87.46347218526185L240.68553032763518,90.01299421310742L242.81586782389678,89.95981197854877L244.94620532015838,91.15551169473072L247.07654281642,94.01871872860889L249.2068803126816,95.05238751726453L251.33721780894317,95.20445537305079L253.46755530520477,98.01709451506397L255.59789280146637,97.5846675939599L257.728230297728,99.08213607445906L259.85856779398955,100.47360735099042L261.9889052902512,103.62509154930679L264.11924278651276,104.71232853852025L266.2495802827744,106.93867524519723L268.37991777903596,108.92931188331326L270.51025527529754,110.58968420065823L272.64059277155917,105.29279412230373L274.77093026782075,107.50994914062012L276.9012677640824,110.17008167218994L279.03160526034395,112.58395492231762L281.1619427566056,115.31060892442203L283.29228025286716,118.09578548638325L285.42261774912873,117.99454283708839L287.55295524539036,120.63950193602929L289.6832927416519,119.34198834890987L291.8136302379135,119.44892882382679L293.9439677341751,120.43939609498572L296.0743052304367,122.14752288511207L298.2046427266983,124.4295094072099L300.33498022295987,125.79354945008166L302.4653177192215,127.86869458971684L304.5956552154831,128.9252100935631L306.7259927117447,129.15278347818412L308.8563302080063,131.09581314963708L310.9866677042679,130.74481950259627L313.1170052005295,131.2316901887641L315.24734269679107,132.87706815514431L317.3776801930527,132.69341099716328L319.5080176893143,134.8802358449532L321.6383551855759,136.12972330159894L323.7686926818375,137.4630149840473L325.89903017809905,139.52568147736216L328.0293676743607,140.6293358937455L330.15970517062226,142.54631580921017L332.2900426668839,142.97269996760107L334.42038016314547,140.30910227840408L336.5507176594071,139.19571643748807L338.6810551556687,140.66952820479517L340.81139265193025,140.61221189705608L342.9417301481918,142.27121689406636L345.0720676444534,141.515165531301L347.20240514071503,142.5183420861878L349.3327426369766,144.25540041031442L351.46308013323824,145.98745878823433L353.5934176294998,147.82219120914274L355.72375512576144,148.52832235116605L357.854092622023,149.01972551979335L359.9844301182846,149.9177624706817L362.1147676145462,151.1895214246281L364.2451051108078,149.71725796914194L366.37544260706943,150.7047624148385L368.505780103331,152.08988402074345L370.6361175995926,150.4933300556563L372.7664550958542,151.94039181407538L374.8967925921158,153.18924011270516L377.0271300883774,153.91923618096203L379.157467584639,154.36473556706343L381.2878050809006,155.50531489556568L383.4181425771622,154.26633265890072L385.5484800734238,151.70534488498203L387.6788175696854,153.069933034075L389.809155065947,154.14331273941468L391.9394925622086,155.54266865620124L394.0698300584702,157.0410488143907L396.20016755473176,157.4371320943982L398.33050505099334,158.61290282244065L400.4608425472549,158.4429191771572L402.59118004351654,158.33457529115566L404.7215175397781,158.36533427687033L406.85185503603975,158.61612672145634L408.9821925323013,159.14100645455784L411.11253002856296,159.9625549640663L413.24286752482453,160.24917216848598L415.3732050210861,160.3501445098225L417.50354251734774,161.00231233220558L419.6338800136093,162.01205385754983L421.76421750987095,162.88294281433946L423.8945550061325,162.6756833627466L426.0248925023941,163.63403912587427L428.15522999865567,163.82827014992714L430.2855674949173,164.066795583047L432.4159049911789,163.04140765440388L434.5462424874405,163.39698603096488L436.6765799837021,164.4842189354099L438.8069174799637,164.32660209074277L440.9372549762253,165.56028762971462L443.0675924724869,166.85951587754468L445.19792996874844,168.04190246296488L447.32826746501013,169.30655848581694L449.45860496127165,169.22986985899377L451.58894245753334,169.3826779583269L453.71927995379485,169.5967381008953L455.8496174500565,169.3833747333041L457.97995494631806,169.73790232380105L460.1102924425797,169.74256089640622L462.24062993884127,170.3841848646278L464.3709674351029,171.32882542976748L466.5013049313645,171.82274009411165L468.6316424276261,172.74650365174313L470.7619799238876,173.9172123451347L472.8923174201493,173.1674589303344L475.02265491641083,173.45530109700252L477.1529924126724,173.0774155083076L479.28332990893404,173.3694262964451L481.4136674051956,173.65365560735404L483.54400490145724,173.38264099943586L485.6743423977188,174.29367555587703L487.80467989398045,175.34839578673933L489.93501739024197,176.04714402384155L492.06535488650366,177.11728712490105L494.1956923827652,178.04664494600308L496.3260298790268,177.6509208634704L498.4563673752884,177.42738548103344L500.58670487155,177.6046744688806L502.7170423678116,177.62787586265932L504.8473798640732,178.47757660884827L506.9777173603348,179.19299098647127L509.1080548565964,178.80038540403459L511.238392352858,178.03794224395065L513.3687298491196,178.81044257069013L515.4990673453811,179.59050883324414L517.6294048416428,179.1829805016048L519.7597423379044,177.7175582711488L521.890079834166,178.60777281911024L524.0204173304276,179.46510964412616L526.1507548266892,180.17097248607723L528.2810923229507,181.17350889543482L530.4114298192123,181.477699653242L532.541767315474,181.58313809620532L534.6721048117355,182.02026604615284L536.8024423079971,180.8522371822584L538.9327798042588,181.83420953164645L541.0631173005204,182.53386013765024L543.1934547967819,182.27553586671243L545.3237922930435,183.1408579120343L547.4541297893051,182.99597821966694L549.5844672855668,183.40371083134252L551.7148047818283,183.69386223120955L553.84514227809,184.58245797599812L555.9754797743515,184.8717693188533L558.1058172706131,185.05993988979657L560.2361547668747,185.47815745217605L562.3664922631364,185.40859716081687L564.4968297593979,186.13870637956816L566.6271672556595,186.39082715806097L568.7575047519211,186.8324576468403L570.8878422481828,187.5422876703046L573.0181797444443,187.6943436994953L575.1485172407059,187.87844244142084L577.2788547369674,188.70435525904483L579.4091922332291,189.500346916672L581.5395297294907,189.33983539496472L583.6698672257522,188.72682395243692L585.8002047220139,188.68277847666405L587.9305422182754,189.49470759058516L590.0608797145371,189.92127495098947L592.1912172107986,189.39477416422676L594.3215547070603,190.15447612238464L596.4518922033218,190.64024273922053L598.5822296995834,191.3218525898202L600.712567195845,191.8463230428691L602.8429046921067,192.29311233331327L604.9732421883682,192.6431381191455L607.1035796846298,192.36854802495643L609.2339171808915,190.80509518569363L611.3642546771531,191.28339477845253L613.4945921734146,191.56907686074194L615.6249296696762,192.189422516714L617.7552671659378,192.32210538836392L619.8856046621995,191.0904334121311L622.015942158461,191.75557262439813L624.1462796547227,191.99168153746044L626.2766171509842,192.52668592729128L628.4069546472458,193.29115554400445L630.5372921435074,193.86059533051434L632.6676296397691,194.10373962999736L634.7979671360306,193.49674360421864L636.9283046322921,194.0319525944344L639.0586421285537,194.7024703068365L641.1889796248154,195.03683085556065L643.319317121077,195.56708248970918L645.4496546173385,196.10746817315368L647.5799921136002,196.58920818268092L649.7103296098618,196.8104109997302L651.8406671061234,196.14668708234697L653.9710046023849,196.10293761073916L656.1013420986466,195.78537205032643L658.2316795949081,196.39817418173442L660.3620170911698,197.07424267919095L662.4923545874314,197.63663000209112L664.622692083693,198.3383987023046L666.7530295799545,198.98660730206265L668.8833670762161,199.56598206217734L671.0137045724778,199.64316942858287L673.1440420687394,200.0781974220818L675.2743795650009,200.5018165523483L677.4047170612625,200.96403216521628L679.5350545575242,201.4341311624394L681.6653920537858,201.75401216833274L683.7957295500473,202.24539424091137L685.926067046309,202.4683417431447L688.0564045425705,202.9493963924514L690.1867420388321,203.20145225908922L692.3170795350937,203.83400696297596L694.4474170313553,203.20777348324847L696.5777545276169,203.18312239649723L698.7080920238785,203.45871293679343L700.8384295201402,203.6691997119152L702.9687670164017,203.77169780684898L705.0991045126633,204.42850568718018L707.2294420089248,204.67250027587932L709.3597795051865,204.20103351114346L711.4901170014481,203.99455189660225L713.6204544977097,203.62498403527496L715.7507919939712,204.14883116251076L717.8811294902329,204.5804821476415L720.0114669864945,204.9066199442435L722.1418044827561,205.14367559684084L724.2721419790176,204.88306892100206L726.4024794752793,205.15138862910752L728.5328169715408,205.1021791344954L730.6631544678025,205.60945726531068L732.7934919640641,205.7243375456827L734.9238294603257,204.82235741202282L737.0541669565872,204.9793345770118L739.1845044528488,205.57076991093558L741.3148419491105,205.5680510416767L743.445179445372,205.78672573274014L745.5755169416336,206.0890314733688L747.7058544378951,206.70501545052778L749.8361919341569,207.27306419612273L751.9665294304184,207.4359646810198L754.09686692668,207.8007666332492L756.2272044229416,208.27573800491368L758.3575419192032,208.19482787369915L760.4878794154648,208.5978292784137L762.6182169117264,208.96012645178703L764.748554407988,209.43970604685623L766.8788919042496,209.80269459781042L769.0092294005112,210.22988269413628L771.1395668967729,210.7815634362538L773.2699043930344,211.19418805723032L775.400241889296,211.75376589329107" fill="none"></path></g><g><path style="fill: none;" stroke="rgb(51, 187, 238)" stroke-width="2px" d="M104.34393056689301,-20.46583791285522L106.47426806315461,4.873512717542516L108.60460555941621,24.53805063864699L110.7349430556778,33.272289461575916L112.8652805519394,47.06569787176425L114.99561804820098,65.61724349240221L117.12595554446258,84.34495950142991L119.25629304072417,91.02214491659629L121.38663053698578,101.26814672146199L123.51696803324738,113.90247378240383L125.64730552950897,125.37363926848148L127.77764302577057,134.08154090427655L129.90798052203218,138.28615378609177L132.03831801829378,146.23592328711715L134.16865551455538,151.49559824081325L136.29899301081696,158.95805995736643L138.42933050707856,161.16215289616605L140.55966800334016,167.3245579583L142.69000549960174,173.03329630741342L144.82034299586334,179.48563319991953L146.95068049212495,178.76996080990645L149.08101798838655,182.04482318355335L151.21135548464812,188.020761035122L153.34169298090973,189.24016864990682L155.47203047717133,194.2805355960387L157.60236797343293,183.40141519860296L159.73270546969454,186.28623189726179L161.86304296595614,188.0292038408775L163.99338046221771,191.3836772617639L166.12371795847932,196.15921642475456L168.2540554547409,200.3504282102374L170.3843929510025,197.32205935046142L172.5147304472641,195.35625470874794L174.6450679435257,199.1405798286103L176.7754054397873,202.82560645629576L178.90574293604888,203.83245237486875L181.03608043231048,205.53283306770086L183.1664179285721,207.478182921387L185.2967554248337,210.51914360038225L187.4270929210953,212.90850707729155L189.5574304173569,215.78859316383227L191.68776791361847,218.6732604806896L193.81810540988008,219.4952761463958L195.94844290614165,220.57912706864215L198.07878040240325,218.99751963110143L200.20911789866486,218.79613364203027L202.33945539492646,220.48726445763896L204.46979289118806,220.4852451663862L206.60013038744964,222.83687181512653L208.73046788371124,225.1425550468514L210.86080537997285,225.0039540108819L212.99114287623445,227.36513522409572L215.12148037249605,229.19939826518885L217.25181786875766,231.3758107048627L219.38215536501923,233.1395695146036L221.51249286128083,234.65103531159238L223.64283035754244,236.24402859632423L225.77316785380404,237.5845867976484L227.90350535006564,239.6274599186051L230.03384284632725,240.98923636165839L232.16418034258885,239.11033155149445L234.29451783885042,239.8277370541102L236.424855335112,240.0572556972646L238.55519283137357,241.32169039316076L240.68553032763518,242.71336418860076L242.81586782389678,243.33613744451964L244.94620532015838,244.4199950085508L247.07654281642,246.07140242575855L249.2068803126816,246.87904523803925L251.33721780894317,248.38570545869248L253.46755530520477,249.85991987852523L255.59789280146637,249.10308784390043L257.728230297728,249.490120921946L259.85856779398955,250.7458902219783L261.9889052902512,252.2857622391972L264.11924278651276,253.44376263279742L266.2495802827744,254.46782770975327L268.37991777903596,254.5690597926413L270.51025527529754,254.91446542816055L272.64059277155917,254.69600078848302L274.77093026782075,255.80655015466925L276.9012677640824,257.14002098608563L279.03160526034395,258.448828020182L281.1619427566056,257.3592415129457L283.29228025286716,258.6437860671704L285.42261774912873,257.92272424113156L287.55295524539036,259.11396055296876L289.6832927416519,260.12849780423284L291.8136302379135,260.5749771937711L293.9439677341751,260.6836681839408L296.0743052304367,261.83191854015587L298.2046427266983,261.9369252961646L300.33498022295987,262.80106213288536L302.4653177192215,263.70606420614433L304.5956552154831,264.5054772328555L306.7259927117447,264.8245030818365L308.8563302080063,265.9271978409689L310.9866677042679,266.0618526369224L313.1170052005295,266.16786495148637L315.24734269679107,267.05580387683057L317.3776801930527,267.80988701744275L319.5080176893143,268.741134030429L321.6383551855759,269.19264758360373L323.7686926818375,270.13524435496635L325.89903017809905,271.1086682567626L328.0293676743607,272.0514871389124L330.15970517062226,272.7032851805461L332.2900426668839,273.3219075850845L334.42038016314547,272.86178377339996L336.5507176594071,273.3802844712216L338.6810551556687,274.2422588103781L340.81139265193025,273.14672224592056L342.9417301481918,274.03219220117774L345.0720676444534,274.7471999844826L347.20240514071503,275.5638678710988L349.3327426369766,276.3895070881593L351.46308013323824,277.19518611496846L353.5934176294998,277.99835137226813" fill="none"></path></g><g><path style="fill: none;" stroke="rgb(204, 51, 17)" stroke-width="2px" d="M104.34393056689301,-16.209991848755948L106.47426806315461,9.019128139733416L108.60460555941621,29.132747928129326L110.7349430556778,34.67162081085949L112.8652805519394,46.30648314275453L114.99561804820098,63.31381329924464L117.12595554446258,82.12437407446039L119.25629304072417,85.68055611354444L121.38663053698578,95.43423688595732L123.51696803324738,108.3712117908161L125.64730552950897,120.319757398165L127.77764302577057,130.72538857488345L129.90798052203218,136.02430947934198L132.03831801829378,145.15066164816204L134.16865551455538,150.4990123304895L136.29899301081696,154.93087798851704L138.42933050707856,159.25183149441472L140.55966800334016,166.10607486069907L142.69000549960174,171.84404492369077L144.82034299586334,178.42711872114208L146.95068049212495,174.6796690024057L149.08101798838655,177.0125647698853L151.21135548464812,183.065571947143L153.34169298090973,184.6806351052706L155.47203047717133,189.43958353969506L157.60236797343293,177.83620407052544L159.73270546969454,181.64184002724764L161.86304296595614,183.96953148892928L163.99338046221771,187.30502998381291L166.12371795847932,192.2313878163142L168.2540554547409,196.41274081454046L170.3843929510025,191.82229786024453L172.5147304472641,189.54283492529396L174.6450679435257,193.59176786918448L176.7754054397873,197.09465871256543L178.90574293604888,198.17906361731187L181.03608043231048,201.24972142254882L183.1664179285721,203.424360606663L185.2967554248337,206.70385088786728L187.4270929210953,209.31881982566227L189.5574304173569,212.27483636803146L191.68776791361847,215.23103177452555L193.81810540988008,216.2559383314159L195.94844290614165,217.66366162774057L198.07878040240325,217.56868562858497L200.20911789866486,215.0914835200406L202.33945539492646,217.02139679119384L204.46979289118806,216.38503366597342L206.60013038744964,218.98352114407822L208.73046788371124,221.1040556798877L210.86080537997285,220.3474887388854L212.99114287623445,222.92516587793557L215.12148037249605,225.21309115075226L217.25181786875766,227.42820846178327L219.38215536501923,228.7236150344855L221.51249286128083,230.33739159405437L223.64283035754244,231.96648205623947L225.77316785380404,233.8321162441617L227.90350535006564,235.96397697634757L230.03384284632725,236.34370233320345L232.16418034258885,235.11578078698457L234.29451783885042,235.31464012652953L236.424855335112,235.5898980973908L238.55519283137357,237.0543088094959L240.68553032763518,238.65326360369082L242.81586782389678,238.7930110891936L244.94620532015838,239.9239737161953L247.07654281642,241.65002054036117L249.2068803126816,242.72569265291835L251.33721780894317,243.1532728328928L253.46755530520477,244.64561191446688L255.59789280146637,244.2490269058963L257.728230297728,245.1242669888274L259.85856779398955,246.31491567605755L261.9889052902512,247.8847166913053L264.11924278651276,249.2275842426072L266.2495802827744,250.58671957676316L268.37991777903596,251.1676882926875L270.51025527529754,251.9131789671586L272.64059277155917,251.36598700014903L274.77093026782075,252.34611390837875L276.9012677640824,253.75482327025216L279.03160526034395,255.1008387039924L281.1619427566056,255.77647474369815L283.29228025286716,257.03041815123714L285.42261774912873,255.8818715355641L287.55295524539036,257.04190811207343L289.6832927416519,258.2261471178719L291.8136302379135,258.2643542419562L293.9439677341751,258.57840405144L296.0743052304367,259.7790518077391L298.2046427266983,260.45627357338776L300.33498022295987,261.2001639056183L302.4653177192215,262.14790551777617L304.5956552154831,263.04667354186216L306.7259927117447,263.50922663730205L308.8563302080063,264.6071232834739L310.9866677042679,265.34234274755147L313.1170052005295,265.4776479191196L315.24734269679107,266.3313921256086L317.3776801930527,267.1496676639271L319.5080176893143,268.14401292702144L321.6383551855759,268.1359043204634L323.7686926818375,269.05253245017235L325.89903017809905,270.03211673978905L328.0293676743607,270.6780875337006L330.15970517062226,271.6279323476973L332.2900426668839,272.34558368367414L334.42038016314547,270.7916726370136L336.5507176594071,271.1383834555453L338.6810551556687,272.03246567356763L340.81139265193025,271.8576847487255L342.9417301481918,272.7421856769948L345.0720676444534,273.42843324892254L347.20240514071503,274.18090049141074L349.3327426369766,275.024241274811L351.46308013323824,275.8646915341975L353.5934176294998,276.6257090041713" fill="none"></path></g></g></g></g><g opacity="0.2"><g><g><g><path style="fill: none;" stroke="rgb(238, 51, 119)" stroke-width="2px" d="M93.69224308558503,-397.32382975919126L95.82258058184662,70.14267781610782L97.95291807810821,12.301374988938733L100.08325557436982,-268.50543088864254L102.21359307063142,-366.80989273865214L104.34393056689301,55.16147714383236L106.47426806315461,70.37199544292925L108.60460555941621,-90.45113459520545L110.7349430556778,104.64500699399365L112.8652805519394,35.14597656642818L114.99561804820098,78.56570045823344L117.12595554446258,295.9664694855697L119.25629304072417,145.7038561769188L121.38663053698578,237.0629273632803L123.51696803324738,22.463308858877998L125.64730552950897,256.4754679781922L127.77764302577057,83.57104869412495L129.90798052203218,-46.13906158892912L132.03831801829378,97.27003477825431L134.16865551455538,126.59685132775407L136.29899301081696,202.92038963437292L138.42933050707856,-51.00559486095387L140.55966800334016,113.64856799750183L142.69000549960174,219.0470433312569L144.82034299586334,1.7173079258662032L146.95068049212495,143.3040306319813L149.08101798838655,202.61765975727425L151.21135548464812,61.68644365561496L153.34169298090973,256.4546533860358L155.47203047717133,82.97747570456599L157.60236797343293,-128.9677211221618L159.73270546969454,168.75340241210534L161.86304296595614,84.10625919979431L163.99338046221771,237.73302458870847L166.12371795847932,231.39889676714438L168.2540554547409,91.78817012560512L170.3843929510025,124.36828702269187L172.5147304472641,44.52228712285537L174.6450679435257,256.2754846417873L176.7754054397873,316.21964796256407L178.90574293604888,214.43311656183644L181.03608043231048,166.42997356264394L183.1664179285721,-142.32441429924813L185.2967554248337,123.19960889249705L187.4270929210953,121.44194922689547L189.5574304173569,237.6614616741314L191.68776791361847,319.2205331181364L193.81810540988008,184.503773687181L195.94844290614165,150.65017871887653L198.07878040240325,218.29871282869175L200.20911789866486,146.56230505489978L202.33945539492646,329.83180454706047L204.46979289118806,-20.493851535176418L206.60013038744964,335.352288430745L208.73046788371124,218.29218276056423L210.86080537997285,180.50072713866527L212.99114287623445,306.4517182520565L215.12148037249605,332.85307703447234L217.25181786875766,348.2406628498411L219.38215536501923,249.21234868721504L221.51249286128083,272.63035911811187L223.64283035754244,32.757935753814486L225.77316785380404,-240.31828978394313L227.90350535006564,367.2764690716767L230.03384284632725,-158.32986636055458L232.16418034258885,-26.487994930812803L234.29451783885042,124.31040919229613L236.424855335112,45.13361373513596L238.55519283137357,161.13037688579593L240.68553032763518,267.0342692893886L242.81586782389678,86.21776693205524L244.94620532015838,176.39853068854165L247.07654281642,300.7967685319104L249.2068803126816,170.66093479365682L251.33721780894317,106.46837547012828L253.46755530520477,308.9554637093044L255.59789280146637,64.75455535239843L257.728230297728,214.15312713683028L259.85856779398955,208.68253705493248L261.9889052902512,351.606155698487L264.11924278651276,191.26442209140154L266.2495802827744,286.2192013187468L268.37991777903596,271.05721213923033L270.51025527529754,247.34260652414366L272.64059277155917,-335.82925991162534L274.77093026782075,294.1836779855047L276.9012677640824,336.5738766930237L279.03160526034395,320.2346450459147L281.1619427566056,352.3572761471515L283.29228025286716,362.77047575131246L285.42261774912873,109.00824036670649L287.55295524539036,357.81374750753145L289.6832927416519,1.8137029549828076L291.8136302379135,129.23270312419092L293.9439677341751,211.9541649570101L296.0743052304367,281.51943348774006L298.2046427266983,339.41055996947966L300.33498022295987,255.53100585909425L302.4653177192215,327.116935100069L304.5956552154831,231.32218122068548L306.7259927117447,151.41437524634526L308.8563302080063,322.9170937249762L310.9866677042679,95.77776116264715L313.1170052005295,180.17311413086983L315.24734269679107,299.7527930210842L317.3776801930527,113.90188872630758L319.5080176893143,360.5937279194632L321.6383551855759,266.2150518363299L323.7686926818375,277.46642936724106L325.89903017809905,357.9617230601337L328.0293676743607,258.4918305771891L330.15970517062226,348.9765709181168L332.2900426668839,189.26798130180933L334.42038016314547,-151.26662837366786L336.5507176594071,16.326447763345495L338.6810551556687,304.62380296090726L340.81139265193025,134.18517311309682L342.9417301481918,329.7714301134694L345.0720676444534,55.39663612065849L347.20240514071503,257.67373547958977L349.3327426369766,345.1895586644796L351.46308013323824,347.8732189772757L353.5934176294998,363.2945065443978L355.72375512576144,232.07937578057212L357.854092622023,207.59644132927986L359.9844301182846,257.75652194876096L362.1147676145462,305.023622962265L364.2451051108078,-29.662908952791103L366.37544260706943,271.88822707865216L368.505780103331,323.2814447430086L370.6361175995926,-48.22745900195751L372.7664550958542,333.3196006614294L374.8967925921158,310.81482408437626L377.0271300883774,246.6941018872699L379.157467584639,211.37148391702323L381.2878050809006,302.4489905545235L383.4181425771622,-6.432956831542873L385.5484800734238,-182.68783673467237L387.6788175696854,332.4319227138562L389.809155065947,296.15997377000434L391.9394925622086,341.90138239639515L394.0698300584702,357.884615326966L396.20016755473176,210.870913382124L398.33050505099334,318.2467239545826L400.4608425472549,135.21758708728717L402.59118004351654,143.4378205043593L404.7215175397781,162.6210434924498L406.85185503603975,193.5307638609045L408.9821925323013,232.6646076284214L411.11253002856296,275.7482880924462L413.24286752482453,200.88978077346508L415.3732050210861,174.7539738435548L417.50354251734774,254.5933416429493L419.6338800136093,307.7814480136577L421.76421750987095,289.3514467022083L423.8945550061325,132.4009850457272L426.0248925023941,304.43990884509384L428.15522999865567,192.53105124350893L430.2855674949173,199.5182879101382L432.4159049911789,9.768371765510137L434.5462424874405,216.8502365840804L436.6765799837021,328.84805679837314L438.8069174799637,140.36504082918782L440.9372549762253,354.1551413274278L443.0675924724869,366.57326953434284L445.19792996874844,350.7945316815834L447.32826746501013,365.8428807765792L449.45860496127165,157.24723106084795L451.58894245753334,193.38780383426146L453.71927995379485,203.40436716412782L455.8496174500565,135.50633853730034L457.97995494631806,226.32634749812036L460.1102924425797,170.49005617496084L462.24062993884127,273.874541161031L464.3709674351029,324.48539416891947L466.5013049313645,252.31550848402665L468.6316424276261,324.06360214633776L470.7619799238876,366.6629312278304L472.8923174201493,49.102339163864364L475.02265491641083,221.32578202697067L477.1529924126724,109.91732278075429L479.28332990893404,222.41924958734535L481.4136674051956,221.63260595068832L483.54400490145724,127.40938566421349L485.6743423977188,329.5915694625883L487.80467989398045,356.01328847451015L489.93501739024197,296.3153243458386L492.06535488650366,362.1946372534162L494.1956923827652,339.54339328890933L496.3260298790268,108.55843090826721L498.4563673752884,138.21435268816188L500.58670487155,208.85108168443443L502.7170423678116,181.73610889445945L504.8473798640732,329.6311006074344L506.9777173603348,307.04570574789307L509.1080548565964,108.3152368866748L511.238392352858,40.53042586681583L513.3687298491196,318.76418721454996L515.4990673453811,321.55293443425353L517.6294048416428,104.68490162896015L519.7597423379044,-91.36452787454054L521.890079834166,342.7955936006057L524.0204173304276,338.2874424562155L526.1507548266892,311.50702405993127L528.2810923229507,368.52499147359896L530.4114298192123,238.57114352802685L532.541767315474,201.45838135405205L534.6721048117355,264.77357755930063L536.8024423079971,-41.21470150266585L538.9327798042588,369.322174729492L541.0631173005204,316.68350599530504L543.1934547967819,132.5364074351371L545.3237922930435,350.4524077655612L547.4541297893051,154.86651106679912L549.5844672855668,262.8961829726423L551.7148047818283,240.49572806013785L553.84514227809,359.253308678664L555.9754797743515,241.97371715171604L558.1058172706131,222.350377775063L560.2361547668747,268.6927535453037L562.3664922631364,171.512228655584L564.4968297593979,332.5793912933958L566.6271672556595,237.1609166473108L568.7575047519211,276.1167714192155L570.8878422481828,331.6140412464154L573.0181797444443,218.67767359875546L575.1485172407059,225.53728059399415L577.2788547369674,358.3074244841828L579.4091922332291,353.59077508789227L581.5395297294907,156.12377875405187L583.6698672257522,61.385448327862655L585.8002047220139,179.49832341897496L587.9305422182754,359.4416826507856L590.0608797145371,279.54404324003156L592.1912172107986,78.36041144147492L594.3215547070603,350.96763269162943L596.4518922033218,293.84942012322796L598.5822296995834,336.6772832552518L600.712567195845,304.1033871408393L602.8429046921067,288.27410024752345L604.9732421883682,268.11150095771967L607.1035796846298,132.94961280075228L609.2339171808915,-148.73622697425878L611.3642546771531,295.5315822531249L613.4945921734146,254.0582841857517L615.6249296696762,328.36592860431836L617.7552671659378,221.55169432529595L619.8856046621995,-81.20185427032119L622.015942158461,339.31887118086905L624.1462796547227,244.55670345520656L626.2766171509842,312.0502887414259L628.4069546472458,364.67176104498367L630.5372921435074,321.96016453245124L632.6676296397691,248.9889999507914L634.7979671360306,56.00941669342062L636.9283046322921,315.6726399705315L639.0586421285537,347.6131704927331L641.1889796248154,271.54509878203424L643.319317121077,317.3074718605434L645.4496546173385,320.5903105631759L647.5799921136002,307.9327619360498L649.7103296098618,248.1064076763937L651.8406671061234,41.722775493972854L653.9710046023849,185.89053313556383L656.1013420986466,121.41317611420864L658.2316795949081,340.3819076034464L660.3620170911698,356.4395587591451L662.4923545874314,330.6338646287353L664.622692083693,364.8326110031435L666.7530295799545,353.2674904821882L668.8833670762161,337.90454068800454L671.0137045724778,218.13204304296858L673.1440420687394,304.611877934151L675.2743795650009,302.61544352157836L677.4047170612625,312.7316987997234L679.5350545575242,315.4640221495127L681.6653920537858,279.5881403309512L683.7957295500473,322.1808540516784L685.926067046309,257.0531876968869L688.0564045425705,321.0901158557164L690.1867420388321,265.2929730562237L692.3170795350937,360.13382842167357L694.4474170313553,47.99901273110186L696.5777545276169,197.05496000346855L698.7080920238785,272.1762324173656L700.8384295201402,256.31111942762374L702.9687670164017,229.48283193329345L705.0991045126633,369.6768693455106L707.2294420089248,266.24223069410283L709.3597795051865,84.8788223770514L711.4901170014481,151.58267754910028L713.6204544977097,109.54102760490667L715.7507919939712,337.89890340262883L717.8811294902329,315.11179384584597L720.0114669864945,288.66184855067286L722.1418044827561,266.1977190969055L724.2721419790176,137.57019717869338L726.4024794752793,274.6552286613295L728.5328169715408,192.31884953744358L730.6631544678025,337.76193777446224L732.7934919640641,235.73696642029557L734.9238294603257,-31.486609033947904L737.0541669565872,246.2213351580698L739.1845044528488,361.39173540514685L741.3148419491105,204.84973142314715L743.445179445372,263.7208081383691L745.5755169416336,286.4016287200394L747.7058544378951,370.80322598619625L749.8361919341569,359.01747533200927L751.9665294304184,251.07123716283238L754.09686692668,305.78501360108515L756.2272044229416,336.19794181878666L758.3575419192032,186.34457693505453L760.4878794154648,317.7244651758341L762.6182169117264,307.32850743856744L764.748554407988,340.00067342587533L766.8788919042496,308.886668421258L769.0092294005112,327.14838018399155L771.1395668967729,362.1729952429595L773.2699043930344,324.72502024801446L775.400241889296,366.122820779683" fill="none"></path></g><g><path style="fill: none;" stroke="rgb(51, 187, 238)" stroke-width="2px" d="M89.43156809306183,-24.512776862635025L91.56190558932343,23.314156329429277L93.69224308558503,-4.228166055757402L95.82258058184662,177.91385085318473L97.95291807810821,-142.6002076453208L100.08325557436982,211.89164465630498L102.21359307063142,-115.33676508372021L104.34393056689301,147.6648152291463L106.47426806315461,231.7904330199693L108.60460555941621,220.10511843254204L110.7349430556778,128.7743739674915L112.8652805519394,211.5146480082952L114.99561804820098,305.1058801388047L117.12595554446258,344.5750690504497L119.25629304072417,190.38239099473356L121.38663053698578,263.8176623129009L123.51696803324738,326.76325283592075L125.64730552950897,329.9041199499569L127.77764302577057,297.8870556263565L129.90798052203218,221.50100977307187L132.03831801829378,311.3568707551166L134.16865551455538,265.8870179452371L136.29899301081696,328.5500650468787L138.42933050707856,213.40419719441746L140.55966800334016,319.39783339562575L142.69000549960174,319.47332455431075L144.82034299586334,351.2807523280022L146.95068049212495,159.01909872624265L149.08101798838655,275.60447354516936L151.21135548464812,364.54676029994624L153.34169298090973,226.44298318762438L155.47203047717133,352.9382593056551L157.60236797343293,-169.57097051280024L159.73270546969454,282.67226472409027L161.86304296595614,247.94749234657195L163.99338046221771,309.93648528208894L166.12371795847932,369.5368977497038L168.2540554547409,356.548749278201L170.3843929510025,81.5481560270006L172.5147304472641,118.3152709815934L174.6450679435257,351.0826294870819L176.7754054397873,354.3141714436034L178.90574293604888,246.18754970793356L181.03608043231048,278.69008378388827L183.1664179285721,293.0347048460462L185.2967554248337,347.1648277488147L187.4270929210953,322.5542540606023L189.5574304173569,350.69820201691823L191.68776791361847,356.5441227504407L193.81810540988008,259.56490442870455L195.94844290614165,274.4420002550996L198.07878040240325,138.89679582364363L200.20911789866486,208.40592745034382L202.33945539492646,309.34079512200424L204.46979289118806,220.37723861529298L206.60013038744964,350.84265745467053L208.73046788371124,352.8253812749832L210.86080537997285,217.19779690935914L212.99114287623445,362.57519706115863L215.12148037249605,335.96354808431926L217.25181786875766,360.10248537006544L219.38215536501923,339.1169970581362L221.51249286128083,326.88829024882125L223.64283035754244,334.95068924090333L225.77316785380404,321.9057621777679L227.90350535006564,370.03661097402306L230.03384284632725,329.19328313445783L232.16418034258885,115.65587522858748L234.29451783885042,287.6348040270326L236.424855335112,255.5661049752796L238.55519283137357,327.9387862622455L240.68553032763518,339.341621198491L242.81586782389678,287.15613855465097L244.94620532015838,321.68963860461423L247.07654281642,365.3344529563366L249.2068803126816,305.9547379792234L251.33721780894317,359.9865447757039L253.46755530520477,360.42098721102775L255.59789280146637,191.64394403919493L257.728230297728,279.2311675246605L259.85856779398955,348.4018420216407L261.9889052902512,373.45378259211367L264.11924278651276,345.62914576041067L266.2495802827744,336.9324883933659L268.37991777903596,262.81393217312217L270.51025527529754,283.3630426242621L272.64059277155917,236.5023873355382L274.77093026782075,349.3094354015988L276.9012677640824,370.6316809689462L279.03160526034395,371.03745870091734L281.1619427566056,162.63403985850826L283.29228025286716,371.4896089241341L285.42261774912873,193.92124152846654L287.55295524539036,365.93246435157596L289.6832927416519,352.02489472290847L291.8136302379135,301.42250083159337L293.9439677341751,270.7262320650566L296.0743052304367,368.9661513020027L298.2046427266983,271.8293863182884L300.33498022295987,344.99140234420605L302.4653177192215,350.601225084758L304.5956552154831,341.9842007506646L306.7259927117447,296.03212090292584L308.8563302080063,374.78828415795425L310.9866677042679,279.4765743720735L313.1170052005295,276.82448030657343L315.24734269679107,357.1113745913705L317.3776801930527,344.9665319675486L319.5080176893143,364.85995008353524L321.6383551855759,316.20015341347636L323.7686926818375,369.1134110341486L325.89903017809905,374.19409897450834L328.0293676743607,372.73788302085353L330.15970517062226,342.89225008752817L332.2900426668839,340.48973662880576L334.42038016314547,222.49346534209917L336.5507176594071,330.60016207985456L338.6810551556687,370.1326437087105L340.81139265193025,150.30112617099837L342.9417301481918,374.1077228411165L345.0720676444534,356.19063339113706L347.20240514071503,369.3097905573206L349.3327426369766,371.8952933921927L351.46308013323824,371.10375459582247L353.5934176294998,372.32266570553696" fill="none"></path></g><g><path style="fill: none;" stroke="rgb(204, 51, 17)" stroke-width="2px" d="M89.43156809306183,-28.94669312121244L91.56190558932343,32.25598778266963L93.69224308558503,43.74043900497949L95.82258058184662,151.92328692295425L97.95291807810821,-127.0811436271992L100.08325557436982,239.7713623974391L102.21359307063142,-97.93795973570691L104.34393056689301,105.05487080130919L106.47426806315461,234.9489198393143L108.60460555941621,229.1660088427556L110.7349430556778,95.23487272531226L112.8652805519394,185.02063113028106L114.99561804820098,282.8676119672055L117.12595554446258,343.5056492311969L119.25629304072417,138.598529860304L121.38663053698578,250.1732380089463L123.51696803324738,326.33094510792665L125.64730552950897,333.3619089983356L127.77764302577057,326.4671231741658L129.90798052203218,240.89697013687882L132.03831801829378,334.7098579050934L134.16865551455538,266.81901936792775L136.29899301081696,255.64951639237702L138.42933050707856,261.6683133460026L140.55966800334016,335.25224893489514L142.69000549960174,319.03392239194966L144.82034299586334,353.7031413627368L146.95068049212495,71.25893684473219L149.08101798838655,243.66114032282906L151.21135548464812,361.86815776086456L153.34169298090973,233.95447464015444L155.47203047717133,339.23897987862154L157.60236797343293,-198.63472224746027L159.73270546969454,308.79381901506997L161.86304296595614,263.98877050430445L163.99338046221771,305.1872317785534L166.12371795847932,371.08459563739416L168.2540554547409,352.2436440339054L170.3843929510025,16.33063108823967L172.5147304472641,100.20940720222711L174.6450679435257,356.157919280303L176.7754054397873,341.09576393775245L178.90574293604888,243.7968433011038L181.03608043231048,333.36183247409974L183.1664179285721,299.0650314512095L185.2967554248337,354.0678718134386L187.4270929210953,329.31739906801806L189.5574304173569,350.74119588343746L191.68776791361847,356.52053415473404L193.81810540988008,266.2156002600203L195.94844290614165,287.62164185846314L198.07878040240325,212.75861323254603L200.20911789866486,87.28397911042114L202.33945539492646,318.42077195204746L204.46979289118806,182.34765232540835L206.60013038744964,360.4266500044821L208.73046788371124,338.533821799126L210.86080537997285,177.73683754157992L212.99114287623445,370.53259364184373L215.12148037249605,358.38286622096547L217.25181786875766,358.44413184305336L219.38215536501923,306.5595727854945L221.51249286128083,328.8181645187367L223.64283035754244,332.90983250940866L225.77316785380404,351.18059645154364L227.90350535006564,372.053754359364L230.03384284632725,260.9390118700903L232.16418034258885,154.43453175531735L234.29451783885042,248.56639485820364L236.424855335112,254.18940846391357L238.55519283137357,337.3702867352835L240.68553032763518,349.67368757582653L242.81586782389678,248.62601999198506L244.94620532015838,320.5517997414747L247.07654281642,366.3034570355798L249.2068803126816,321.40660734123225L251.33721780894317,274.8248510071533L253.46755530520477,356.56596723127154L255.59789280146637,214.14005424653593L257.728230297728,312.3809372105775L259.85856779398955,338.90670845796757L261.9889052902512,371.40776226823465L264.11924278651276,356.1297583615031L266.2495802827744,360.03350833695885L268.37991777903596,298.48483107186865L270.51025527529754,313.31388243217714L272.64059277155917,205.79614491025978L274.77093026782075,334.8680590087137L276.9012677640824,373.6500321835101L279.03160526034395,370.8902794786446L281.1619427566056,314.5141331866877L283.29228025286716,367.1879640101292L285.42261774912873,153.93681812522388L287.55295524539036,361.06272264153694L289.6832927416519,365.4940641784283L291.8136302379135,261.75984908614157L293.9439677341751,287.59520911198996L296.0743052304367,371.80207491599214L298.2046427266983,324.2558820429985L300.33498022295987,331.95354101884925L302.4653177192215,353.14676871733974L304.5956552154831,350.15483530310917L306.7259927117447,308.7569088253024L308.8563302080063,372.9945265754637L310.9866677042679,338.5871496259973L313.1170052005295,279.0788524101825L315.24734269679107,352.9189034567449L317.3776801930527,350.8743815332031L319.5080176893143,370.77552540850274L321.6383551855759,267.291709572892L323.7686926818375,365.3038400734791L325.89903017809905,373.76993151210485L328.0293676743607,339.6632047342019L330.15970517062226,373.9121063682028L332.2900426668839,350.26562326558883L334.42038016314547,100.68987737117138L336.5507176594071,309.4001460439405L338.6810551556687,371.49469340161835L340.81139265193025,252.25900808987652L342.9417301481918,372.70819719722846L345.0720676444534,351.5959157991747L347.20240514071503,360.5571828140709L349.3327426369766,372.5776556192376L351.46308013323824,373.826135374841L353.5934176294998,366.00015641522197" fill="none"></path></g></g></g></g></g></g><g transform="translate(51, 376)" clip-path="url(#clip_1)"><clipPath id="clip_1"><rect width="852" height="23"></rect></clipPath><g><g><line x1="0" y1="0" x2="0" y2="5" style="visibility: inherit;" fill="rgb(0, 0, 0)" stroke="rgb(204, 204, 204)" stroke-width="1px"></line><line x1="85.21349985046388" y1="0" x2="85.21349985046388" y2="5" style="visibility: inherit;" fill="rgb(0, 0, 0)" stroke="rgb(204, 204, 204)" stroke-width="1px"></line><line x1="170.42699970092775" y1="0" x2="170.42699970092775" y2="5" style="visibility: inherit;" fill="rgb(0, 0, 0)" stroke="rgb(204, 204, 204)" stroke-width="1px"></line><line x1="255.6404995513916" y1="0" x2="255.6404995513916" y2="5" style="visibility: inherit;" fill="rgb(0, 0, 0)" stroke="rgb(204, 204, 204)" stroke-width="1px"></line><line x1="340.8539994018555" y1="0" x2="340.8539994018555" y2="5" style="visibility: inherit;" fill="rgb(0, 0, 0)" stroke="rgb(204, 204, 204)" stroke-width="1px"></line><line x1="426.06749925231935" y1="0" x2="426.06749925231935" y2="5" style="visibility: inherit;" fill="rgb(0, 0, 0)" stroke="rgb(204, 204, 204)" stroke-width="1px"></line><line x1="511.2809991027832" y1="0" x2="511.2809991027832" y2="5" style="visibility: inherit;" fill="rgb(0, 0, 0)" stroke="rgb(204, 204, 204)" stroke-width="1px"></line><line x1="596.4944989532471" y1="0" x2="596.4944989532471" y2="5" style="visibility: inherit;" fill="rgb(0, 0, 0)" stroke="rgb(204, 204, 204)" stroke-width="1px"></line><line x1="681.707998803711" y1="0" x2="681.707998803711" y2="5" style="visibility: inherit;" fill="rgb(0, 0, 0)" stroke="rgb(204, 204, 204)" stroke-width="1px"></line><line x1="766.9214986541748" y1="0" x2="766.9214986541748" y2="5" style="visibility: inherit;" fill="rgb(0, 0, 0)" stroke="rgb(204, 204, 204)" stroke-width="1px"></line><line x1="852.1349985046387" y1="0" x2="852.1349985046387" y2="5" style="visibility: inherit;" fill="rgb(0, 0, 0)" stroke="rgb(204, 204, 204)" stroke-width="1px"></line></g><g transform="translate(0, 8)"><text style="text-anchor: middle; visibility: hidden; font-family: Roboto, sans-serif; font-size: 12px; font-weight: 200;" x="0" y="0" dx="0em" dy="0.95em" fill="rgb(255, 255, 255)" stroke="none" stroke-width="1px">-2k</text><text style="text-anchor: middle; visibility: inherit; font-family: Roboto, sans-serif; font-size: 12px; font-weight: 200;" x="85.21349985046388" y="0" dx="0em" dy="0.95em" fill="rgb(255, 255, 255)" stroke="none" stroke-width="1px">0</text><text style="text-anchor: middle; visibility: inherit; font-family: Roboto, sans-serif; font-size: 12px; font-weight: 200;" x="170.42699970092775" y="0" dx="0em" dy="0.95em" fill="rgb(255, 255, 255)" stroke="none" stroke-width="1px">2k</text><text style="text-anchor: middle; visibility: inherit; font-family: Roboto, sans-serif; font-size: 12px; font-weight: 200;" x="255.6404995513916" y="0" dx="0em" dy="0.95em" fill="rgb(255, 255, 255)" stroke="none" stroke-width="1px">4k</text><text style="text-anchor: middle; visibility: inherit; font-family: Roboto, sans-serif; font-size: 12px; font-weight: 200;" x="340.8539994018555" y="0" dx="0em" dy="0.95em" fill="rgb(255, 255, 255)" stroke="none" stroke-width="1px">6k</text><text style="text-anchor: middle; visibility: inherit; font-family: Roboto, sans-serif; font-size: 12px; font-weight: 200;" x="426.06749925231935" y="0" dx="0em" dy="0.95em" fill="rgb(255, 255, 255)" stroke="none" stroke-width="1px">8k</text><text style="text-anchor: middle; visibility: inherit; font-family: Roboto, sans-serif; font-size: 12px; font-weight: 200;" x="511.2809991027832" y="0" dx="0em" dy="0.95em" fill="rgb(255, 255, 255)" stroke="none" stroke-width="1px">10k</text><text style="text-anchor: middle; visibility: inherit; font-family: Roboto, sans-serif; font-size: 12px; font-weight: 200;" x="596.4944989532471" y="0" dx="0em" dy="0.95em" fill="rgb(255, 255, 255)" stroke="none" stroke-width="1px">12k</text><text style="text-anchor: middle; visibility: inherit; font-family: Roboto, sans-serif; font-size: 12px; font-weight: 200;" x="681.707998803711" y="0" dx="0em" dy="0.95em" fill="rgb(255, 255, 255)" stroke="none" stroke-width="1px">14k</text><text style="text-anchor: middle; visibility: inherit; font-family: Roboto, sans-serif; font-size: 12px; font-weight: 200;" x="766.9214986541748" y="0" dx="0em" dy="0.95em" fill="rgb(255, 255, 255)" stroke="none" stroke-width="1px">16k</text><text style="text-anchor: middle; visibility: hidden; font-family: Roboto, sans-serif; font-size: 12px; font-weight: 200;" x="852.1349985046387" y="0" dx="0em" dy="0.95em" fill="rgb(255, 255, 255)" stroke="none" stroke-width="1px">18k</text></g><line x1="0" y1="0" x2="852.1349985046387" y2="0" fill="rgb(0, 0, 0)" stroke="rgb(204, 204, 204)" stroke-width="1px"></line></g></g></g></g></svg>