<svg viewBox="0 0 903.6666259765625 400" xmlns="http://www.w3.org/2000/svg"><g><g><g><g><g><line x1="51.53200149536133" y1="376.5999994277954" x2="46.53200149536133" y2="376.5999994277954" style="visibility: inherit;" fill="rgb(0, 0, 0)" stroke="rgb(204, 204, 204)" stroke-width="1px"></line><line x1="51.53200149536133" y1="351.4933327992757" x2="46.53200149536133" y2="351.4933327992757" style="visibility: inherit;" fill="rgb(0, 0, 0)" stroke="rgb(204, 204, 204)" stroke-width="1px"></line><line x1="51.53200149536133" y1="326.38666617075603" x2="46.53200149536133" y2="326.38666617075603" style="visibility: inherit;" fill="rgb(0, 0, 0)" stroke="rgb(204, 204, 204)" stroke-width="1px"></line><line x1="51.53200149536133" y1="301.27999954223634" x2="46.53200149536133" y2="301.27999954223634" style="visibility: inherit;" fill="rgb(0, 0, 0)" stroke="rgb(204, 204, 204)" stroke-width="1px"></line><line x1="51.53200149536133" y1="276.1733329137166" x2="46.53200149536133" y2="276.1733329137166" style="visibility: inherit;" fill="rgb(0, 0, 0)" stroke="rgb(204, 204, 204)" stroke-width="1px"></line><line x1="51.53200149536133" y1="251.06666628519693" x2="46.53200149536133" y2="251.06666628519693" style="visibility: inherit;" fill="rgb(0, 0, 0)" stroke="rgb(204, 204, 204)" stroke-width="1px"></line><line x1="51.53200149536133" y1="225.95999965667724" x2="46.53200149536133" y2="225.95999965667724" style="visibility: inherit;" fill="rgb(0, 0, 0)" stroke="rgb(204, 204, 204)" stroke-width="1px"></line><line x1="51.53200149536133" y1="200.8533330281575" x2="46.53200149536133" y2="200.8533330281575" style="visibility: inherit;" fill="rgb(0, 0, 0)" stroke="rgb(204, 204, 204)" stroke-width="1px"></line><line x1="51.53200149536133" y1="175.74666639963786" x2="46.53200149536133" y2="175.74666639963786" style="visibility: inherit;" fill="rgb(0, 0, 0)" stroke="rgb(204, 204, 204)" stroke-width="1px"></line><line x1="51.53200149536133" y1="150.63999977111817" x2="46.53200149536133" y2="150.63999977111817" style="visibility: inherit;" fill="rgb(0, 0, 0)" stroke="rgb(204, 204, 204)" stroke-width="1px"></line><line x1="51.53200149536133" y1="125.53333314259844" x2="46.53200149536133" y2="125.53333314259844" style="visibility: inherit;" fill="rgb(0, 0, 0)" stroke="rgb(204, 204, 204)" stroke-width="1px"></line><line x1="51.53200149536133" y1="100.42666651407872" x2="46.53200149536133" y2="100.42666651407872" style="visibility: inherit;" fill="rgb(0, 0, 0)" stroke="rgb(204, 204, 204)" stroke-width="1px"></line><line x1="51.53200149536133" y1="75.31999988555907" x2="46.53200149536133" y2="75.31999988555907" style="visibility: inherit;" fill="rgb(0, 0, 0)" stroke="rgb(204, 204, 204)" stroke-width="1px"></line><line x1="51.53200149536133" y1="50.21333325703937" x2="46.53200149536133" y2="50.21333325703937" style="visibility: inherit;" fill="rgb(0, 0, 0)" stroke="rgb(204, 204, 204)" stroke-width="1px"></line><line x1="51.53200149536133" y1="25.106666628519648" x2="46.53200149536133" y2="25.106666628519648" style="visibility: inherit;" fill="rgb(0, 0, 0)" stroke="rgb(204, 204, 204)" stroke-width="1px"></line><line x1="51.53200149536133" y1="0" x2="46.53200149536133" y2="0" style="visibility: inherit;" fill="rgb(0, 0, 0)" stroke="rgb(204, 204, 204)" stroke-width="1px"></line></g><g transform="translate(41.53200149536133, 0)"><text style="text-anchor: end; visibility: hidden; font-family: Roboto, sans-serif; font-size: 12px; font-weight: 200;" x="0" y="376.5999994277954" dx="0em" dy="0.3em" fill="rgb(255, 255, 255)" stroke="none" stroke-width="1px">0.06</text><text style="text-anchor: end; visibility: inherit; font-family: Roboto, sans-serif; font-size: 12px; font-weight: 200;" x="0" y="351.4933327992757" dx="0em" dy="0.3em" fill="rgb(255, 255, 255)" stroke="none" stroke-width="1px">0.08</text><text style="text-anchor: end; visibility: inherit; font-family: Roboto, sans-serif; font-size: 12px; font-weight: 200;" x="0" y="326.38666617075603" dx="0em" dy="0.3em" fill="rgb(255, 255, 255)" stroke="none" stroke-width="1px">0.1</text><text style="text-anchor: end; visibility: inherit; font-family: Roboto, sans-serif; font-size: 12px; font-weight: 200;" x="0" y="301.27999954223634" dx="0em" dy="0.3em" fill="rgb(255, 255, 255)" stroke="none" stroke-width="1px">0.12</text><text style="text-anchor: end; visibility: inherit; font-family: Roboto, sans-serif; font-size: 12px; font-weight: 200;" x="0" y="276.1733329137166" dx="0em" dy="0.3em" fill="rgb(255, 255, 255)" stroke="none" stroke-width="1px">0.14</text><text style="text-anchor: end; visibility: inherit; font-family: Roboto, sans-serif; font-size: 12px; font-weight: 200;" x="0" y="251.06666628519693" dx="0em" dy="0.3em" fill="rgb(255, 255, 255)" stroke="none" stroke-width="1px">0.16</text><text style="text-anchor: end; visibility: inherit; font-family: Roboto, sans-serif; font-size: 12px; font-weight: 200;" x="0" y="225.95999965667724" dx="0em" dy="0.3em" fill="rgb(255, 255, 255)" stroke="none" stroke-width="1px">0.18</text><text style="text-anchor: end; visibility: inherit; font-family: Roboto, sans-serif; font-size: 12px; font-weight: 200;" x="0" y="200.8533330281575" dx="0em" dy="0.3em" fill="rgb(255, 255, 255)" stroke="none" stroke-width="1px">0.2</text><text style="text-anchor: end; visibility: inherit; font-family: Roboto, sans-serif; font-size: 12px; font-weight: 200;" x="0" y="175.74666639963786" dx="0em" dy="0.3em" fill="rgb(255, 255, 255)" stroke="none" stroke-width="1px">0.22</text><text style="text-anchor: end; visibility: inherit; font-family: Roboto, sans-serif; font-size: 12px; font-weight: 200;" x="0" y="150.63999977111817" dx="0em" dy="0.3em" fill="rgb(255, 255, 255)" stroke="none" stroke-width="1px">0.24</text><text style="text-anchor: end; visibility: inherit; font-family: Roboto, sans-serif; font-size: 12px; font-weight: 200;" x="0" y="125.53333314259844" dx="0em" dy="0.3em" fill="rgb(255, 255, 255)" stroke="none" stroke-width="1px">0.26</text><text style="text-anchor: end; visibility: inherit; font-family: Roboto, sans-serif; font-size: 12px; font-weight: 200;" x="0" y="100.42666651407872" dx="0em" dy="0.3em" fill="rgb(255, 255, 255)" stroke="none" stroke-width="1px">0.28</text><text style="text-anchor: end; visibility: inherit; font-family: Roboto, sans-serif; font-size: 12px; font-weight: 200;" x="0" y="75.31999988555907" dx="0em" dy="0.3em" fill="rgb(255, 255, 255)" stroke="none" stroke-width="1px">0.3</text><text style="text-anchor: end; visibility: inherit; font-family: Roboto, sans-serif; font-size: 12px; font-weight: 200;" x="0" y="50.21333325703937" dx="0em" dy="0.3em" fill="rgb(255, 255, 255)" stroke="none" stroke-width="1px">0.32</text><text style="text-anchor: end; visibility: inherit; font-family: Roboto, sans-serif; font-size: 12px; font-weight: 200;" x="0" y="25.106666628519648" dx="0em" dy="0.3em" fill="rgb(255, 255, 255)" stroke="none" stroke-width="1px">0.34</text><text style="text-anchor: end; visibility: hidden; font-family: Roboto, sans-serif; font-size: 12px; font-weight: 200;" x="0" y="0" dx="0em" dy="0.3em" fill="rgb(255, 255, 255)" stroke="none" stroke-width="1px">0.36</text></g><line x1="51.53200149536133" y1="0" x2="51.53200149536133" y2="376.5999994277954" fill="rgb(0, 0, 0)" stroke="rgb(204, 204, 204)" stroke-width="1px"></line></g></g><g transform="translate(51, 0)" clip-path="url(#clip_0)"><clipPath id="clip_0"><rect width="852" height="376"></rect></clipPath><g><g><g><line x1="0" y1="0" x2="0" y2="376.5999994277954" fill="rgb(0, 0, 0)" stroke="rgb(189, 189, 189)" stroke-width="1px" opacity="0.25"></line><line x1="65.54884603881837" y1="0" x2="65.54884603881837" y2="376.5999994277954" fill="rgb(0, 0, 0)" stroke="rgb(189, 189, 189)" stroke-width="1px" opacity="0.25"></line><line x1="131.09769207763674" y1="0" x2="131.09769207763674" y2="376.5999994277954" fill="rgb(0, 0, 0)" stroke="rgb(189, 189, 189)" stroke-width="1px" opacity="0.25"></line><line x1="196.64653811645508" y1="0" x2="196.64653811645508" y2="376.5999994277954" fill="rgb(0, 0, 0)" stroke="rgb(189, 189, 189)" stroke-width="1px" opacity="0.25"></line><line x1="262.1953841552735" y1="0" x2="262.1953841552735" y2="376.5999994277954" fill="rgb(0, 0, 0)" stroke="rgb(189, 189, 189)" stroke-width="1px" opacity="0.25"></line><line x1="327.7442301940918" y1="0" x2="327.7442301940918" y2="376.5999994277954" fill="rgb(0, 0, 0)" stroke="rgb(189, 189, 189)" stroke-width="1px" opacity="0.25"></line><line x1="393.2930762329102" y1="0" x2="393.2930762329102" y2="376.5999994277954" fill="rgb(0, 0, 0)" stroke="rgb(189, 189, 189)" stroke-width="1px" opacity="0.25"></line><line x1="458.8419222717285" y1="0" x2="458.8419222717285" y2="376.5999994277954" fill="rgb(0, 0, 0)" stroke="rgb(189, 189, 189)" stroke-width="1px" opacity="0.25"></line><line x1="524.390768310547" y1="0" x2="524.390768310547" y2="376.5999994277954" fill="rgb(0, 0, 0)" stroke="rgb(189, 189, 189)" stroke-width="1px" opacity="0.25"></line><line x1="589.9396143493652" y1="0" x2="589.9396143493652" y2="376.5999994277954" fill="rgb(0, 0, 0)" stroke="rgb(189, 189, 189)" stroke-width="1px" opacity="0.25"></line><line x1="655.4884603881835" y1="0" x2="655.4884603881835" y2="376.5999994277954" fill="rgb(0, 0, 0)" stroke="rgb(189, 189, 189)" stroke-width="1px" opacity="0.25"></line><line x1="721.037306427002" y1="0" x2="721.037306427002" y2="376.5999994277954" fill="rgb(0, 0, 0)" stroke="rgb(189, 189, 189)" stroke-width="1px" opacity="0.25"></line><line x1="786.5861524658203" y1="0" x2="786.5861524658203" y2="376.5999994277954" fill="rgb(0, 0, 0)" stroke="rgb(189, 189, 189)" stroke-width="1px" opacity="0.25"></line><line x1="852.1349985046387" y1="0" x2="852.1349985046387" y2="376.5999994277954" fill="rgb(0, 0, 0)" stroke="rgb(189, 189, 189)" stroke-width="1px" opacity="0.25"></line></g><g><line x1="0" y1="376.5999994277954" x2="852.1349985046387" y2="376.5999994277954" fill="rgb(0, 0, 0)" stroke="rgb(189, 189, 189)" stroke-width="1px" opacity="0.25"></line><line x1="0" y1="351.4933327992757" x2="852.1349985046387" y2="351.4933327992757" fill="rgb(0, 0, 0)" stroke="rgb(189, 189, 189)" stroke-width="1px" opacity="0.25"></line><line x1="0" y1="326.38666617075603" x2="852.1349985046387" y2="326.38666617075603" fill="rgb(0, 0, 0)" stroke="rgb(189, 189, 189)" stroke-width="1px" opacity="0.25"></line><line x1="0" y1="301.27999954223634" x2="852.1349985046387" y2="301.27999954223634" fill="rgb(0, 0, 0)" stroke="rgb(189, 189, 189)" stroke-width="1px" opacity="0.25"></line><line x1="0" y1="276.1733329137166" x2="852.1349985046387" y2="276.1733329137166" fill="rgb(0, 0, 0)" stroke="rgb(189, 189, 189)" stroke-width="1px" opacity="0.25"></line><line x1="0" y1="251.06666628519693" x2="852.1349985046387" y2="251.06666628519693" fill="rgb(0, 0, 0)" stroke="rgb(189, 189, 189)" stroke-width="1px" opacity="0.25"></line><line x1="0" y1="225.95999965667724" x2="852.1349985046387" y2="225.95999965667724" fill="rgb(0, 0, 0)" stroke="rgb(189, 189, 189)" stroke-width="1px" opacity="0.25"></line><line x1="0" y1="200.8533330281575" x2="852.1349985046387" y2="200.8533330281575" fill="rgb(0, 0, 0)" stroke="rgb(189, 189, 189)" stroke-width="1px" opacity="0.25"></line><line x1="0" y1="175.74666639963786" x2="852.1349985046387" y2="175.74666639963786" fill="rgb(0, 0, 0)" stroke="rgb(189, 189, 189)" stroke-width="1px" opacity="0.25"></line><line x1="0" y1="150.63999977111817" x2="852.1349985046387" y2="150.63999977111817" fill="rgb(0, 0, 0)" stroke="rgb(189, 189, 189)" stroke-width="1px" opacity="0.25"></line><line x1="0" y1="125.53333314259844" x2="852.1349985046387" y2="125.53333314259844" fill="rgb(0, 0, 0)" stroke="rgb(189, 189, 189)" stroke-width="1px" opacity="0.25"></line><line x1="0" y1="100.42666651407872" x2="852.1349985046387" y2="100.42666651407872" fill="rgb(0, 0, 0)" stroke="rgb(189, 189, 189)" stroke-width="1px" opacity="0.25"></line><line x1="0" y1="75.31999988555907" x2="852.1349985046387" y2="75.31999988555907" fill="rgb(0, 0, 0)" stroke="rgb(189, 189, 189)" stroke-width="1px" opacity="0.25"></line><line x1="0" y1="50.21333325703937" x2="852.1349985046387" y2="50.21333325703937" fill="rgb(0, 0, 0)" stroke="rgb(189, 189, 189)" stroke-width="1px" opacity="0.25"></line><line x1="0" y1="25.106666628519648" x2="852.1349985046387" y2="25.106666628519648" fill="rgb(0, 0, 0)" stroke="rgb(189, 189, 189)" stroke-width="1px" opacity="0.25"></line><line x1="0" y1="0" x2="852.1349985046387" y2="0" fill="rgb(0, 0, 0)" stroke="rgb(189, 189, 189)" stroke-width="1px" opacity="0.25"></line></g></g></g><g><g><line x1="0" y1="451.9199993133545" x2="852.1349985046387" y2="451.9199993133545" fill="rgb(0, 0, 0)" stroke="rgb(153, 153, 153)" stroke-width="1.5px"></line></g></g><g><g><line x1="65.54884603881837" y1="0" x2="65.54884603881837" y2="376.5999994277954" fill="rgb(0, 0, 0)" stroke="rgb(153, 153, 153)" stroke-width="1.5px"></line></g></g><g><g><g><g><g><path style="fill: none;" stroke="rgb(0, 119, 187)" stroke-width="2px" d="M65.54884603881837,309.7422170136941L66.82158613273874,259.19767721679665L68.0797598164283,214.0561745315627L69.33429189756012,205.31673282746218L70.58882397869195,213.57451185229664L71.83607285470836,190.16491587023728L73.09606733967675,221.57623065565696L74.68198525356038,212.31058031744288L76.24969515465546,213.02641499978495L77.70633617774031,221.93224353274243L79.29589569418165,232.04061286899992L80.72158309552596,234.01773818987314L82.04894722781204,223.82691550155303L83.29983770638614,230.91947459895385L84.55254898623912,243.68320215330272L85.99098199653542,244.01270679033246L87.45126462217797,249.36386456280826L88.70579670330982,257.36650967552526L95.35536297369215,254.4712443776525L96.62264066377597,256.0125996659147L97.89902236025408,256.45864645126693L99.15901684522248,258.7345512913336L100.42447373402744,261.5342550976252L101.70085543050554,267.1490907630922L102.9790579282625,273.2451995399077L104.24451481706745,277.8092824553505L105.49358449436274,282.7696597358207L106.73355016526372,287.1098247975503L107.97897824000127,277.5745473284523L109.23533112241194,273.7609010391994L110.48622160098604,269.3936593573147L111.77716970769498,268.18453357385124L113.04262659649999,272.12594671791476L114.35542431855521,270.68689842135393L115.62270200863901,274.593336334354L116.88997969872284,276.72548213688856L123.56321638573034,277.5351659816986L124.81774846686216,280.1789607968817L126.08138455438825,280.3518476535655L127.31770862273153,277.9542119798548L128.56677830002678,276.16272132479764L129.81402717604317,276.9574988058545L131.0649176546173,273.1448960288177L132.3048833255183,273.6924537789317L133.57034021432324,275.6070057943747L134.8321555005705,274.9915375665912L136.09579158809663,275.63410540877345L137.35032366922846,278.6918657504046L138.60121414780258,280.19613689563766L139.85028382509782,282.3647935258394L141.1029951049508,283.0457696989876L142.38483920526548,285.8001299753605L143.65211689534928,286.14601083049L144.9193945854331,282.91331297996135L151.587168868604,285.3240787945033L152.86719216763984,285.2205795275361L154.1417530628391,288.0606698677491L155.41449315675948,289.69039007386425L156.685412449401,285.9185016836625L157.95997334460026,284.8018123025171L159.23453423979953,287.3456193937531L160.47632071197935,289.7579454347521L161.74724000462086,290.8753559659213L162.985384874243,292.41987496766586L164.2526625643268,292.0764041787619L165.4926282352278,293.8269357320187L166.7562643227539,296.05672384682725L168.05085403202057,295.74062869227805L169.33451893361408,294.9661720976735L170.6109006300922,294.8145327420282L171.85268710227203,294.5121453248953L173.12178559363474,294.15365710588793L179.8441839151713,296.00754720032677L181.12238641292825,295.7847120232528L182.41697612219494,296.7834487059806L183.89728756190493,297.85489644624676L185.41583582847088,297.0225416185781L186.9981121397968,298.0617033889405L188.50573559868963,298.1154257798872L189.86223255143736,297.72720784265914L191.12768944024234,299.282019956019L192.37493831625872,299.5101106265953L193.62947039739058,301.3499978230031L194.87854007468584,302.22490018394717L196.10940173919255,302.8215456400593L197.3530090126512,303.3913128544294L198.61118269634076,303.84409295567593L199.88028118770345,301.42575114565807L201.13117166627757,302.68488445822305L202.5459342599487,304.0352334653105L209.37940145949554,305.510058386783L210.6339335406274,303.74173352405734L211.87754081408605,305.3636521344262L213.14846010672758,303.8636945006079L214.41027539297488,305.38248371320185L215.66844907666436,306.72540557375106L216.91387715140195,306.7615710713685L218.14655961718748,306.6767166058547L219.40473330087704,308.0141524318003L220.64105736922033,309.43823377782087L221.88648544395787,310.24300169379427L223.17743355066682,311.1934318333633L224.42286162540432,312.2148448743405L225.66282729630535,312.383293769716L226.9210009799949,313.6755847972183L228.1755330611267,314.1112327083054L229.43370674481625,314.1375026990559L230.71190924257326,315.18964744085747L237.37240032062869,315.8712315681388L238.61782839536625,316.7111131230454L239.88146448289237,317.743781249422L241.1123261473991,318.48929701186205L242.35411261957893,319.70134368005387L243.58133268152787,320.6306325516558L244.81947755115004,321.49499104328027L246.09039684379155,322.1995125442241L247.35767453387535,319.86865798579277L248.626773025238,319.78653078946934L249.86855949741783,320.9126232902839L251.1085251683189,321.1246776488282L252.36669885200843,321.578932256465L253.63033493953455,322.06619913651804L254.89215022578176,321.8595444848883L256.1448615056347,322.8721233470734L257.37208156758373,323.60377345643684L258.6411800589464,324.58485699031417L265.19060225899165,324.4815102803455L266.4451343401235,325.4807823468817L267.66871279951476,325.9137988962052L268.90867847041574,326.8093658683577L270.157748147711,327.50555383902764L271.4031762224486,328.1719788047226L272.6358586882341,329.0097168687215L273.86672035274086,329.4189675944297L275.0866572095744,329.27596585325085L276.3102356689657,329.86681835434814L277.5975421731169,330.6206024891533L278.82294143378704,331.3224416939074L280.0519822970149,331.85428106455015L281.27920235896386,332.1174668045388L282.5155264273071,332.52390419949785L283.7518504956504,333.3516121686138L284.9790705575994,333.87574827958355L286.19536581187526,334.6215740871392L292.7666376272668,334.9819767895049L294.1868626247745,335.71397074636906L295.6544284555325,336.48363236717216L297.229421561743,337.1246835798354L298.8353682896941,336.0930254052018L300.28472610766346,336.5398972938892L301.5410789900742,336.60054056151205L302.7846862635329,336.9479837884698L304.0446807485012,336.4764835640693L305.2737216117291,336.05314226598864L306.49365846856267,336.2337264236045L307.7463697484156,336.59187680582306L308.9735898103646,337.12322501473795L310.22265948765994,337.7063628022161L311.4972203828591,338.03971533681903L312.74082765631783,338.3115774030105L313.9753309233822,338.2999423255416L315.18980537637924,337.59168817682917L321.8029556211845,337.05773544852934L323.05020449720087,337.04341933970846L324.2938117706596,337.5944923677896L325.55380625562793,338.096663540315L326.8574999712889,338.8226682398989L328.1138528536996,339.47184431714896L329.3374313130908,340.18131847511575L330.6502290351461,340.66684813866084L331.89565710988364,341.1774304758226L333.1611139986886,341.6347402826451L334.3974380670319,341.89167363190444L335.6319413340963,341.43720340101646L336.88829421650695,341.46943185059774L338.15557190659075,341.2672263923161L339.4301328017901,341.81386058660104L340.6901272867584,342.26937190284445L341.9555841755634,342.31841737381825L343.19737064774324,342.7335120504217" fill="none"></path></g><g><path style="fill: none;" stroke="rgb(255, 112, 67)" stroke-width="2px" d="M65.54884603881837,309.7422170136941L66.88531417749871,259.19767721679665L68.19447029699623,214.0561745315627L69.4927016088206,205.31673282746218L70.78364971552955,213.57451185229664L72.07823942479621,190.16491587023728L73.40742435836114,221.57623065565696L74.99334227224477,212.31058031744288L76.67940425646549,213.02641499978495L78.25621816395486,221.93224353274243L79.87491050085788,232.04061286899992L81.27874828685592,234.01773818987314L82.5642339897283,223.82691550155303L83.85336129515838,230.91947459895385L85.13884699803077,243.68320215330272L86.44436151497057,244.01270679033246L87.72802641656409,249.36386456280826L89.0207953245519,257.36650967552526L95.7959968831753,254.4712443776525L97.09969059883628,256.0125996659147L98.4033843144972,256.45864645126693L99.68704921609073,258.7345512913336L100.9816389253574,261.5342550976252L102.27987023718177,267.1490907630922L103.59995116435242,273.2451995399077L104.89089927106136,277.8092824553505L106.18366817904918,282.7696597358207L107.47461628575813,287.1098247975503L108.76374359118822,277.5745473284523L110.08200371708003,273.7609010391994L111.37295182378897,269.3936593573147L112.66572073177676,268.18453357385124L113.97487685127429,272.12594671791476L115.27674976565635,270.68689842135393L116.58226428259617,274.593336334354L117.87321238930511,276.72548213688856L124.70485878757306,277.5351659816986L126.02129811218603,280.1789607968817L127.54895038514626,280.3518476535655L128.8817769212689,277.9542119798548L130.16362102158357,276.16272132479764L131.46367313468681,276.9574988058545L133.49750816316902,273.1448960288177L135.16536213460117,273.6924537789317L136.50000947200266,275.6070057943747L137.79459918126932,274.9915375665912L139.08736808925715,275.63410540877345L140.3783161959661,278.6918657504046L141.66198109755962,280.19613689563766L142.94564599915316,282.3647935258394L144.24933971481406,283.0457696989876L145.54575022535963,285.8001299753605L146.84216073590514,286.14601083049L148.13675044517177,282.91331297996135L154.9993504651803,285.3240787945033L156.5652395649965,285.2205795275361L157.91991571646543,288.0606698677491L159.2764126692132,289.69039007386425L160.57100237847985,285.9185016836625L161.8619504851888,284.8018123025171L163.51341724511124,287.3456193937531L164.81164855693564,289.7579454347521L166.12080467643315,290.8753559659213L167.41903598825752,292.41987496766586L168.7081632936876,292.0764041787619L169.99911140039654,293.8269357320187L171.3082675198941,296.05672384682725L172.58647001765104,295.74062869227805L173.87741812436,294.9661720976735L175.16836623106894,294.8145327420282L176.45749353649902,294.5121453248953L177.76482885471768,294.15365710588793L184.89326586143918,296.00754720032677L186.49010858299593,295.7847120232528L188.04507287513903,296.7834487059806L189.6510196030901,297.85489644624676L191.00387495328013,297.0225416185781L192.3148518740565,298.0617033889405L193.5912335705346,298.1154257798872L194.8712568695704,297.72720784265914L196.18769619418333,299.282019956019L197.53326833925797,299.5101106265953L199.3886648424123,301.3499978230031L200.91631711537255,302.22490018394717L202.44579018961164,302.8215456400593L203.96433845617761,303.3913128544294L205.5065571393687,303.84409295567593L206.97048136756896,301.42575114565807L208.48356723029835,302.68488445822305L209.9857282853546,304.0352334653105L217.86615622024368,305.510058386783L219.43568692261763,303.74173352405734L220.94331038151043,305.3636521344262L222.39266819947983,303.8636945006079L223.78558117780474,305.38248371320185L225.07835008579252,306.72540557375106L226.36929819250147,306.7615710713685L227.6638879017682,306.6767166058547L228.95483600847714,308.0141524318003L230.28220014076322,309.43823377782087L231.61320587560695,310.24300169379427L232.95331561684503,311.1934318333633L234.2752173452945,312.2148448743405L235.6244310929269,312.383293769716L236.94087041753977,313.6755847972183L238.24092253064305,314.1112327083054L239.53369143863085,314.1375026990559L240.82646034661866,315.18964744085747L247.62897392442488,315.8712315681388L248.95451725543214,316.7111131230454L250.28006058643933,317.743781249422L251.57465029570605,318.48929701186205L252.8728816075304,319.70134368005387L254.16929211807587,320.6306325516558L255.4748066350157,321.49499104328027L256.7912459596286,322.1995125442241L258.076731662501,319.86865798579277L259.36767976921,319.78653078946934L260.6586278759189,320.9126232902839L261.947755181349,321.1246776488282L263.4626618453573,321.578932256465L264.8082339904319,322.06619913651804L266.1374189239968,321.8595444848883L267.4866326716292,322.8721233470734L268.83766722054037,323.60377345643684L270.1377193336436,324.58485699031417L277.02763137283495,324.4815102803455L278.32950428721705,325.4807823468817L279.62227319520485,325.9137988962052L280.92050450702925,326.8093658683577L282.2314814278056,327.50555383902764L283.54974155369734,328.1719788047226L284.8497936668006,329.0097168687215L286.14984577990384,329.4189675944297L287.4498978930071,329.27596585325085L288.7499500061103,329.86681835434814L290.1155509652524,330.6206024891533L291.69418567402056,331.3224416939074L293.2928491968562,331.85428106455015L294.89879592480725,332.1174668045388L296.4464770118349,332.52390419949785L297.84121079143864,333.3516121686138L299.15582931477275,333.87574827958355L300.43949421636626,334.6215740871392L307.2329037877782,334.9819767895049L308.52749349704493,335.71397074636906L309.8330080139847,336.48363236717216L311.12577692197254,337.1246835798354L312.4112626248449,336.0930254052018L313.7022107315538,336.5398972938892L314.9931588382628,336.60054056151205L316.28410694497177,336.9479837884698L317.5695926478441,336.4764835640693L318.8587199532742,336.05314226598864L320.151488861262,336.2337264236045L321.4351537628556,336.59187680582306L322.69150664526626,337.12322501473795L323.95514273279235,337.7063628022161L325.20967481392415,338.03971533681903L326.4551028886617,338.3115774030105L327.7333053864187,338.2999423255416L328.97509185859855,337.59168817682917L336.1381240896183,337.05773544852934L337.3726273566827,337.04341933970846L338.61077222630485,337.5944923677896L339.86712510871547,338.096663540315L341.11619478601074,338.8226682398989L342.3561604569117,339.47184431714896L343.59066372397615,340.18131847511575L344.8269877923194,340.66684813866084L346.0633118606627,341.1774304758226L347.32512714690995,341.6347402826451L348.58148002932063,341.89167363190444L349.8250873027793,341.43720340101646L351.07961938391117,341.46943185059774L352.34325547143726,341.2672263923161L353.66151559732907,341.81386058660104L354.9324348899706,342.26937190284445L356.2361286056315,342.31841737381825L357.4924814880422,342.7335120504217" fill="none"></path></g><g><path style="fill: none;" stroke="rgb(0, 119, 187)" stroke-width="2px" d="M123.68338927013482,-5.982136624974975L125.72996990756903,3.0326648671992373L127.73649291686841,14.933768535536297L129.7484783300044,15.567700665230914L131.7495389354672,15.707454222311798L133.75424114348772,24.357202376464873L135.76258495406597,26.879875548090773L137.7709287646442,27.136716352034416L139.78837658161675,35.39394834174497L141.80036199475268,32.588034332444614L143.81780981172517,33.58939404924721L145.84436163509199,33.343249481819306L156.56706036627537,37.47638815993494L158.62456581138272,41.859907454442585L160.63108882068212,40.403678877816596L162.63032862486608,39.027632979842544L164.64777644183857,44.65475552282779L166.6615826562534,49.25132790963589L168.66082246043734,54.65528690857892L170.676449476131,56.628098268350875L172.70300129949783,61.50758118104115L174.72409071902806,58.89179172842374L176.77067135646226,56.226846511867116L178.79722317982907,63.170600315717394L180.84562461854213,64.42906600635962L182.8612516342358,70.05693822995157L184.85502903458323,75.17881851993845L186.86519364644028,78.85976839787972L188.86261264934538,80.72957272214975L190.8727772612025,83.64312451975992L201.65738323586694,88.922542894901L203.95887605234105,88.3325395317264L206.22395284323798,92.8869799909359L208.52362485843315,97.46962043326685L210.53014786773255,99.36681276046077L212.53302927447425,102.66336844153234L214.55047709144674,107.76032837215277L216.5606417033039,111.57141210569561L218.55988150748783,114.65955218846413L220.57732932446032,116.73958705755238L222.5856731350386,115.84412877118466L224.62679136863622,115.24049572586017L226.64059758305103,119.40486764121344L228.64712059235043,118.52493265280323L230.69188042850578,118.27033636503373L232.69840343780515,117.49073146828177L234.73041766500856,117.06943079222016L236.73694067430796,119.18498538109583L247.74368440499285,121.82568546478576L249.75384901684993,122.92673710988105L251.73488080824535,122.45033622373485L253.75779102905443,124.1361302473511L255.78798445497895,124.63259954274467L257.8181778809034,126.44646096576358L259.8429089029914,126.62760068876901L261.8731023289159,129.39658989654612L263.9160413637924,131.4225590286894L265.9280267769284,131.98150731323622L267.96004100413177,135.250414621918L269.9756680198254,137.28245471923265L271.9821910291248,136.94641997746407L274.0123844550493,138.99842832061358L276.0316530733007,141.29797720305496L278.0345344800424,140.50657743378756L280.0264910791109,143.40575767676222L282.04575969736226,146.36834336172285L292.8103368579594,148.25540819040825L294.81139746342217,151.3920584470209L296.81792047272154,153.65749169385302L298.8244434820209,154.280160282268L300.8273248887626,156.70113553073077L302.83384789806195,159.13650028334237L304.8294460996882,159.3832513901893L306.82322350003557,161.14796691546226L308.8461337208447,162.1648443289067L310.967367210712,164.67527522181544L313.26157682207065,166.70264395113506L315.686884125507,169.08999516399754L317.8190424230474,171.1323582852888L319.8364902400199,171.83168456552863L321.8521172557136,174.5179587626893L323.8604610662918,172.85159468908438L325.86698407559123,172.78832361971905L327.8917150976792,173.4878238661381L338.72548270687275,174.74738760913627L340.78298815198013,176.80034241960405L342.7967943663949,176.80927683594507L344.86158301661766,177.80206694365646L346.8826724361479,180.24908657725163L348.91286586207247,178.4053565596837L350.9230304739295,179.69839827716785L352.9459406947386,181.0038277177946L354.97795492194194,178.8890624130209L357.0008651427511,179.1831020575318L359.025596164839,180.967276050282L361.050327186927,181.54237616730802L363.10237022819774,182.93562285904784L365.1161764426125,180.54537217890174L367.12634105446966,178.61945417277067L369.1219392560959,179.39134762286164L371.1266414641164,180.33454777055815L373.1222396657427,180.98787903086276L383.9268744544746,181.1885128522806L385.97527589318764,183.16370810485344L387.9963653127179,182.1865384348475L390.0101715271327,183.8411471097079L392.02761934410523,183.4675310888721L394.07237918026055,183.3854856368578L396.09346859979075,184.28888466801504L398.114558019321,184.6291138765831L400.1684218618706,182.0477379726641L402.21318169802606,182.39381728589606L404.2433751239505,183.14549248378958L406.26992694731734,183.60122540871416L408.3074035783573,184.43976252836325L410.3230305940509,183.6812674442763L412.3240911995137,183.92081164184557L414.3215102024189,185.81253301589922L416.3262124104393,186.3571165942725L418.37461384915247,187.21791455019624L430.107857290101,188.77589291733085L432.16536273520836,189.80731966398446L434.1973769624117,191.5285606914796L436.2603448113556,191.67102620890617L438.3051046475109,191.87387389206802L440.7049207330433,193.04389211404032L442.7278309538523,193.70886638940078L444.77076998872883,194.4159867386374L446.817350626163,194.64594882185406L448.8530064559242,194.1833596608726L450.88866228568526,194.9279858872501L452.9024685001,195.80678245546832L454.97271955415937,197.0697552619598L457.0229417941512,197.47380737860337L459.05677682263354,197.62281321572712L461.09789505623115,197.25752485299296L463.1481172962231,197.93629261186723L465.2056227413304,198.7242750450835L476.103118395284,198.88069227696406L478.15334063527587,199.56208433445076L480.1780716573639,200.76196924089152L482.2246522947981,199.33681917993127L484.24210011177064,200.84719274012943L486.2668311338585,201.72532708584052L488.3134117712928,202.31629249924094L490.33996359465954,203.7141493544735L492.40657304616127,204.87855103391854L494.42948326697024,205.0490629180041L496.4396478788273,205.47829581701606L498.4443500868479,205.49613803404864L500.4636187050993,204.6461256724335L502.51566174637003,204.15855354408004L504.52764715950605,205.10097597874335L506.56330298926713,206.20483745029952L508.5807508062396,207.01947403258748L510.6291522449527,207.37755527319345L521.3846253991554,208.55867033152225L523.3929692097337,208.54451673611547L525.399492219033,208.0920813056068L527.4096568308902,208.11385118437502L529.4216422440262,208.63220810944028L531.7031062464328,208.9583934858823L534.0992807294074,209.38640099070014L536.393490340766,209.47984086674373L538.3963717475077,210.51633238537278L540.3865075452974,210.21452658787732L542.3930305545967,210.07613380444104L544.4031951664538,210.66919998031062L546.6810175663028,208.85268652043104L549.0262096134693,210.1394961648255L551.3185984235491,211.32057079911004L553.6091664323501,211.85487366450266L555.8833472296415,212.94160115964215L558.0610255591532,212.80404339372848L570.0127651535644,213.26482237197538L572.0356753743735,212.1410006940188L574.0585855951826,212.76281668907902L576.0742126108762,213.57841903279547L578.088018825291,213.3749858093234L580.0890794307539,213.2988701912147L582.0937816387744,213.9883175177555L584.1003046480738,214.97712564608813L586.1195732663252,215.5368476167897L588.1352002820188,216.72507877909933L590.1508272977125,217.08247987094234L592.1609919095696,216.63620890695236L594.1620525150324,217.13816343334045L596.1612923192164,216.49931499136122L598.1550697195637,216.7925716551654L600.1615927288632,216.80518377683177L602.1735781419991,217.4822583446683L604.1709971449043,218.10115422152222L615.0029439528189,218.32752224201437L617.0112877633971,218.97745183573787L619.0706140097834,219.72686160513882L621.1026282369868,220.7203066114059L623.1255384577959,221.63559744529866L625.1375238709318,220.5988617913824L627.1750005019718,221.13632808949396L629.2088355304539,220.22455256954746L631.2372081550997,220.62443597698064L633.2528351707933,221.35882755687217L635.281207795439,221.1816675250477L637.2840892021807,220.95737151077998L639.5036459611061,221.4847473060267L641.8688668223402,222.05470782192188L644.1466892221891,223.03084942130997L646.3607835772782,223.03147539909168L648.374589791693,223.46262836762182L650.3902168073865,221.81150274508622L661.515312621197,221.78317701820708L663.5382228420062,222.67873318802626L665.5593122615364,222.3921636050416L667.5749392772301,219.38978823940198L669.5923870942026,220.4368825941454L671.611655712454,220.78441155215523L673.6418491383786,221.3794979380569L675.6611177566299,221.88646712161082L677.6749239710447,222.25603374361074L679.6723429739499,222.69515534448328L681.6734035794126,222.86043111770644L683.6781057874332,222.36923813900512L685.6828079954537,222.67743760502285L687.6820477996376,223.09240417421336L689.6703627961485,223.44150074051637L691.6732442028901,222.28997876759433L693.6579175968432,221.97914789074193L695.6589782023061,222.5278941271121L706.3124864848929,223.07816684257156L708.3044430839615,223.0904698195504L710.3364573111647,223.61517996158864L712.3211307051179,224.35240245810022L714.3021624965133,224.4574322824708L716.2722694802355,224.62687092102846L718.266046880583,225.41024958653173L720.263465883488,226.09103945314155L722.2572432838355,226.528621923308L724.2546622867407,227.19588257287558L726.2375148794149,227.94443657444302L728.2495002925507,228.32245721773245L730.245098494177,227.99649778167105L732.2406966958033,228.54324762679698L734.2271908910353,228.7167228740075L736.2136850862673,228.3294866794553L738.202000082778,229.17737867969467L740.1975982844043,229.2853117324683L751.2170876240411,229.08669298164185L753.4985516264479,229.98272940176219L755.5378490587666,230.15721898989992L757.5552968757391,230.47316214662308L759.5672822888752,230.4166432816179L761.5719844968955,230.44365714671545L763.5930739164259,230.35274105143043L765.603238528283,230.3190105484999L767.61340314014,231.01091435155524L769.6181053481606,231.68998119250415L771.6191659536235,231.89619153704615L773.6184057578074,232.1416875455364L775.6085415555971,232.49579248904095L777.6114229623387,232.55688771042682L779.6033795614073,232.88041206573814L781.5916945579181,232.89331638947613L783.6182463812848,233.33725514872148L785.6138445829112,233.6956192694796" fill="none"></path></g></g></g></g><g opacity="0.2"><g><g><g><path style="fill: none;" stroke="rgb(0, 119, 187)" stroke-width="2px" d="M65.54884603881837,309.7422170136941L66.82158613273874,208.70368195970167L68.0797598164283,123.90854852764315L69.33429189756012,179.15080941636705L70.58882397869195,246.52313269788942L71.83607285470836,73.46761205875193L73.09606733967675,409.3855800549738L74.68198525356038,147.70994793105268L76.24969515465546,218.72738244996677L77.70633617774031,301.6850048768327L79.29589569418165,332.57001046790947L80.72158309552596,255.63606043876334L82.04894722781204,102.32902010946512L83.29983770638614,322.4798945933335L84.55254898623912,421.0409866327829L85.99098199653542,248.91591971366555L87.45126462217797,334.25825754996197L88.70579670330982,392.1935776281853L95.35536297369215,202.84876505826716L96.62264066377597,285.0072423391429L97.89902236025408,265.2865029150755L99.15901684522248,306.0063072196357L100.42447373402744,322.4243473510546L101.70085543050554,394.7519214271874L106.73355016526372,402.6678290117084L107.97897824000127,14.423484286804632L109.23533112241194,164.8087153545313L110.48622160098604,140.3876822079029L111.77716970769498,231.2954066489534L113.04262659649999,396.1914451864713L114.35542431855521,223.9970658030135L115.62270200863901,405.1132591750122L116.88997969872284,350.0224320966499L123.56321638573034,306.1507730731867L124.81774846686216,376.16289042469714L126.08138455438825,286.79500493859695L127.31770862273153,186.29310544159958L128.56677830002678,205.9532002590099L129.81402717604317,308.8681078759771L131.0649176546173,116.41177523647863L132.3048833255183,296.72662551637916L133.57034021432324,357.97877253659635L134.8321555005705,247.92323372166138L136.09579158809663,304.50791591650545L137.35032366922846,419.0097453840925L138.60121414780258,350.65952782022487L139.85028382509782,386.0143748226771L141.1029951049508,316.2403464759574L142.38483920526548,422.68035513457784L143.65211689534928,303.66319378590083L144.9193945854331,116.12714589197091L151.587168868604,411.9878780996553L152.86719216763984,279.6846773380334L154.1417530628391,442.65493570539667L155.41449315675948,379.9401169291053L156.685412449401,73.48175373754056L157.95997334460026,220.8560044024452L159.23453423979953,435.40911700303644L160.47632071197935,432.438029322075L161.74724000462086,358.01622179709216L162.985384874243,386.67420292078634L164.2526625643268,270.7939198603508L165.4926282352278,403.93545467942073L166.7562643227539,438.3978081279067L168.05085403202057,275.26673083721266L169.33451893361408,244.0800828634558L170.6109006300922,284.7094627298357L171.85268710227203,274.07946582039443L173.12178559363474,269.596273055533L179.8441839151713,424.72892508391345L181.12238641292825,280.1054296938439L182.41697612219494,367.9847117517162L183.89728756190493,375.2338186048364L185.41583582847088,236.13926834069795L186.9981121397968,375.03415156860643L188.50573559868963,302.14442237822004L189.86223255143736,268.25346827796426L191.12768944024234,418.75950688145366L192.37493831625872,317.24777273632856L193.62947039739058,446.1253341941662L194.87854007468584,371.8735892419308L196.10940173919255,350.8674815809302L197.3530090126512,349.7961465301074L198.61118269634076,341.1363323941238L199.88028118770345,100.02759282808536L201.13117166627757,408.6978193353685L209.37940145949554,432.3801882658259L210.6339335406274,150.0091679133622L211.87754081408605,447.84741386315864L213.14846010672758,170.72738204606063L214.41027539297488,441.5727506339062L215.66844907666436,428.36675504026226L216.91387715140195,310.07028151448117L218.14655961718748,298.836541544534L219.40473330087704,432.7997972220121L224.42286162540432,411.2097022948318L225.66282729630535,328.86123361708246L226.9210009799949,441.25414080874435L228.1755330611267,357.51180719474445L229.43370674481625,316.77822597692L230.71190924257326,421.89912091112745L246.09039684379155,398.6939611543296L247.35767453387535,64.71727995496646L248.626773025238,310.723267920769L249.86855949741783,446.18484826152195L251.1085251683189,344.9029292570351L252.36669885200843,372.91864246907886L253.63033493953455,377.568654667058L254.89215022578176,298.13750115256147L256.1448615056347,440.00214627904495L258.6411800589464,439.804023650692L265.19060225899165,312.25329094193046L266.4451343401235,444.59697775395006L273.86672035274086,380.357820219251L275.0866572095744,311.3516840954578L276.3102356689657,404.44230572841155L280.0519822970149,400.3724718027717L281.27920235896386,366.25335686705995L282.5155264273071,385.5932296424558L297.229421561743,424.71327056349514L298.8353682896941,194.2450686952543L300.28472610766346,398.36758018673163L301.5410789900742,345.0431301598404L302.7846862635329,385.61680378358466L304.0446807485012,270.0251437824999L305.2737216117291,276.0258733640368L306.49365846856267,361.9942797815195L307.7463697484156,387.9891732829616L312.74082765631783,378.2547552358797L313.9753309233822,336.5805512899247L315.18980537637924,232.32548578368042L321.8029556211845,257.24349792773796L323.05020449720087,334.89131279388306L324.2938117706596,420.9036687805639L334.3974380670319,382.47049069476253L335.6319413340963,269.27812269463743L336.88829421650695,346.6136234482759L338.15557190659075,308.82217547880055L339.4301328017901,429.98289779876893L340.6901272867584,416.12238308216286L341.9555841755634,350.31130768597905L343.19737064774324,410.7280995671967" fill="none"></path></g><g><path style="fill: none;" stroke="rgb(255, 112, 67)" stroke-width="2px" d="M65.54884603881837,309.7422170136941L66.88531417749871,208.70368195970167L68.19447029699623,123.90854852764315L69.4927016088206,179.15080941636705L70.78364971552955,246.52313269788942L72.07823942479621,73.46761205875193L73.40742435836114,409.3855800549738L74.99334227224477,147.70994793105268L76.67940425646549,218.72738244996677L78.25621816395486,301.6850048768327L79.87491050085788,332.57001046790947L81.27874828685592,255.63606043876334L82.5642339897283,102.32902010946512L83.85336129515838,322.4798945933335L85.13884699803077,421.0409866327829L86.44436151497057,248.91591971366555L87.72802641656409,334.25825754996197L89.0207953245519,392.1935776281853L95.7959968831753,202.84876505826716L97.09969059883628,285.0072423391429L98.4033843144972,265.2865029150755L99.68704921609073,306.0063072196357L100.9816389253574,322.4243473510546L102.27987023718177,394.7519214271874L107.47461628575813,402.6678290117084L108.76374359118822,14.423484286804632L110.08200371708003,164.8087153545313L111.37295182378897,140.3876822079029L112.66572073177676,231.2954066489534L113.97487685127429,396.1914451864713L115.27674976565635,223.9970658030135L116.58226428259617,405.1132591750122L117.87321238930511,350.0224320966499L124.70485878757306,306.1507730731867L126.02129811218603,376.16289042469714L127.54895038514626,286.79500493859695L128.8817769212689,186.29310544159958L130.16362102158357,205.9532002590099L131.46367313468681,308.8681078759771L133.49750816316902,116.41177523647863L135.16536213460117,296.72662551637916L136.50000947200266,357.97877253659635L137.79459918126932,247.92323372166138L139.08736808925715,304.50791591650545L140.3783161959661,419.0097453840925L141.66198109755962,350.65952782022487L142.94564599915316,386.0143748226771L144.24933971481406,316.2403464759574L145.54575022535963,422.68035513457784L146.84216073590514,303.66319378590083L148.13675044517177,116.12714589197091L154.9993504651803,411.9878780996553L156.5652395649965,279.6846773380334L157.91991571646543,442.65493570539667L159.2764126692132,379.9401169291053L160.57100237847985,73.48175373754056L161.8619504851888,220.8560044024452L163.51341724511124,435.40911700303644L164.81164855693564,432.438029322075L166.12080467643315,358.01622179709216L167.41903598825752,386.67420292078634L168.7081632936876,270.7939198603508L169.99911140039654,403.93545467942073L171.3082675198941,438.3978081279067L172.58647001765104,275.26673083721266L173.87741812436,244.0800828634558L175.16836623106894,284.7094627298357L176.45749353649902,274.07946582039443L177.76482885471768,269.596273055533L184.89326586143918,424.72892508391345L186.49010858299593,280.1054296938439L188.04507287513903,367.9847117517162L189.6510196030901,375.2338186048364L191.00387495328013,236.13926834069795L192.3148518740565,375.03415156860643L193.5912335705346,302.14442237822004L194.8712568695704,268.25346827796426L196.18769619418333,418.75950688145366L197.53326833925797,317.24777273632856L199.3886648424123,446.1253341941662L200.91631711537255,371.8735892419308L202.44579018961164,350.8674815809302L203.96433845617761,349.7961465301074L205.5065571393687,341.1363323941238L206.97048136756896,100.02759282808536L208.48356723029835,408.6978193353685L217.86615622024368,432.3801882658259L219.43568692261763,150.0091679133622L220.94331038151043,447.84741386315864L222.39266819947983,170.72738204606063L223.78558117780474,441.5727506339062L225.07835008579252,428.36675504026226L226.36929819250147,310.07028151448117L227.6638879017682,298.836541544534L228.95483600847714,432.7997972220121L234.2752173452945,411.2097022948318L235.6244310929269,328.86123361708246L236.94087041753977,441.25414080874435L238.24092253064305,357.51180719474445L239.53369143863085,316.77822597692L240.82646034661866,421.89912091112745L256.7912459596286,398.6939611543296L258.076731662501,64.71727995496646L259.36767976921,310.723267920769L260.6586278759189,446.18484826152195L261.947755181349,344.9029292570351L263.4626618453573,372.91864246907886L264.8082339904319,377.568654667058L266.1374189239968,298.13750115256147L267.4866326716292,440.00214627904495L270.1377193336436,439.804023650692L277.02763137283495,312.25329094193046L278.32950428721705,444.59697775395006L286.14984577990384,380.357820219251L287.4498978930071,311.3516840954578L288.7499500061103,404.44230572841155L293.2928491968562,400.3724718027717L294.89879592480725,366.25335686705995L296.4464770118349,385.5932296424558L311.12577692197254,424.71327056349514L312.4112626248449,194.2450686952543L313.7022107315538,398.36758018673163L314.9931588382628,345.0431301598404L316.28410694497177,385.61680378358466L317.5695926478441,270.0251437824999L318.8587199532742,276.0258733640368L320.151488861262,361.9942797815195L321.4351537628556,387.9891732829616L326.4551028886617,378.2547552358797L327.7333053864187,336.5805512899247L328.97509185859855,232.32548578368042L336.1381240896183,257.24349792773796L337.3726273566827,334.89131279388306L338.61077222630485,420.9036687805639L348.58148002932063,382.47049069476253L349.8250873027793,269.27812269463743L351.07961938391117,346.6136234482759L352.34325547143726,308.82217547880055L353.66151559732907,429.98289779876893L354.9324348899706,416.12238308216286L356.2361286056315,350.31130768597905L357.4924814880422,410.7280995671967" fill="none"></path></g><g><path style="fill: none;" stroke="rgb(0, 119, 187)" stroke-width="2px" d="M71.62850150891876,-224.92334426719506L73.62956211438159,147.9397127995193L75.6342643224021,-107.18114832328678L79.63092312949118,-128.7996598877552L81.65565415157911,51.29454466178645L83.75139642354245,186.37389632875315L85.78341065074581,15.007071713851955L87.79357526260291,-0.9225567334780713L89.82012708596972,-13.663461085063323L91.8594245182885,106.85757474081124L94.1263221104643,257.23640838241926L96.37501168985156,15.093493084226933L98.69289171783532,243.0889681690948L100.75950116933696,-98.74380374528357L111.5950895798094,64.21719577409968L113.64895342235904,11.204045063320468L115.65365563037957,11.69533745975522L117.65653703712124,93.29491913369078L119.67034325153605,113.78632393396568L121.68232866467199,245.7696767720596L123.68338927013482,253.45115235999523L125.72996990756903,225.49619599015452L127.73649291686841,320.2197793458224L129.7484783300044,32.4463056659442L131.7495389354672,19.564321233110483L133.75424114348772,271.4721405585511L135.76258495406597,101.39828813882065L137.7709287646442,34.97265298139078L139.78837658161675,295.31026904437L141.80036199475268,-58.44967145463101L143.81780981172517,67.04631718064783L145.84436163509199,24.881517633939115L156.56706036627537,183.54855351891837L158.62456581138272,201.00516527470725L160.63108882068212,-13.867131189098526L162.63032862486608,-13.578311717542377L164.64777644183857,265.1848362163769L166.6615826562534,233.80540498654113L168.66082246043734,276.8078184126114L170.676449476131,139.61856942341424L172.70300129949783,271.4426600218171L174.72409071902806,-56.15067594341338L178.79722317982907,381.81323466124775L180.84562461854213,123.378385220464L182.8612516342358,339.0375557439037L184.85502903458323,324.84783078864575L186.86519364644028,261.78763459404564L188.86261264934538,175.42606705912982L190.8727772612025,233.9634326352268L201.65738323586694,366.30792204831187L203.95887605234105,56.77481931086813L206.22395284323798,340.79824151789927L208.52362485843315,351.2444994856721L210.53014786773255,206.21869344293458L212.53302927447425,291.4364685291602L214.55047709144674,404.43129729194715L216.5606417033039,336.98279413361695L218.55988150748783,300.2139148702528L220.57732932446032,243.67379018714746L222.5856731350386,60.35883699941902L224.62679136863622,77.27194812398604L226.64059758305103,385.24232988455077L228.64712059235043,61.530389039805385L230.69188042850578,101.5419496376258L232.69840343780515,65.5387693275612L234.73041766500856,88.60164013275113L236.73694067430796,264.1060281487869L247.74368440499285,305.1777376546845L249.75384901684993,200.39969191620133L251.73488080824535,88.48708505219345L253.75779102905443,245.88254831942814L255.78798445497895,160.94725139641295L257.8181778809034,260.802206500679L259.8429089029914,140.21246381476385L261.8731023289159,339.6199179329078L263.9160413637924,287.10548587051983L265.9280267769284,175.4485889920154L267.96004100413177,392.4711595157042L269.9756680198254,299.04785301865536L271.9821910291248,109.88662506652994L274.0123844550493,306.1247624854148L276.0316530733007,330.695274673313L278.0345344800424,74.59924565663175L280.0264910791109,387.50271169148346L282.04575969736226,398.5139166327151L292.8103368579594,310.5880053819851L294.81139746342217,424.0825021188226L296.81792047272154,352.67330475031855L298.8244434820209,209.54825444291168L300.8273248887626,373.7906846021581L302.83384789806195,379.73090987147026L304.8294460996882,181.95802618553228L306.82322350003557,324.19982951119016L308.8461337208447,257.0416984161351L310.967367210712,401.17757946214L313.26157682207065,359.5310462547407L315.686884125507,398.3151802162202L317.8190424230474,369.07720320294885L319.8364902400199,240.24089766120684L321.8521172557136,439.7144012290171L323.8604610662918,6.843319985005559L325.86698407559123,166.42816204692164L327.8917150976792,244.43177294666359L338.72548270687275,303.62404228629157L340.78298815198013,388.6964162227499L342.7967943663949,177.7394474261523L344.86158301661766,282.05082711757274L346.8826724361479,439.38806234974885L348.91286586207247,-18.491983918862573L350.9230304739295,318.93977970917007L352.9459406947386,322.74273153600427L354.97795492194194,-52.607699052828416L357.0008651427511,211.63226276587835L359.025596164839,379.44781441275705L361.050327186927,246.02996970902234L363.10237022819774,340.3999175653528L365.1161764426125,-91.71770892194924L367.12634105446966,-42.45812639778989L369.1219392560959,268.6800942940123L371.1266414641164,290.2723427407304L373.1222396657427,257.7155793398923L383.9268744544746,204.92796595868265L385.97527589318764,418.61284308179455L387.9963653127179,64.84530330103712L390.0101715271327,383.9853946525894L392.02761934410523,137.94625978888544L394.07237918026055,173.3171237390398L396.09346859979075,295.94282858129645L398.114558019321,226.97695695960977L400.1684218618706,-141.50992393529833L402.21318169802606,226.07482634725608L404.2433751239505,278.6755488385488L406.26992694731734,241.91747224648142L408.3074035783573,292.4705881435412L410.3230305940509,85.30243884795121L412.3240911995137,215.19856594409478L414.3215102024189,434.4611159568805L416.3262124104393,258.40984972116235L418.37461384915247,301.85436831565846L430.107857290101,397.60803080605336L432.16536273520836,328.9523782333491L434.1973769624117,425.2206196577211L436.2603448113556,211.13648094760595L438.3051046475109,219.7644388944665L440.7049207330433,354.92365550533276L442.7278309538523,286.28476344082236L444.77076998872883,293.46731461519926L446.817350626163,227.055877254331L448.8530064559242,128.59097809247513L450.88866228568526,301.149837734897L452.9024685001,321.9207558093771L454.97271955415937,379.39639650327257L457.0229417941512,256.14933229627826L459.05677682263354,219.3883188740921L461.09789505623115,143.58774209378782L463.1481172962231,298.2422169169249L465.2056227413304,315.84031093133524L476.103118395284,222.26164237981692L478.15334063527587,301.99412962924214L480.1780716573639,382.1561189305803L484.24210011177064,431.7396459756943L486.2668311338585,336.70969699145473L488.3134117712928,293.6573855122512L490.33996359465954,420.95080537161886L492.40657304616127,386.8169337998563L494.42948326697024,231.83533444862945L496.4396478788273,273.26927482609125L498.4443500868479,208.32905841327317L500.4636187050993,68.9701466736316L502.51566174637003,125.9247478749368L504.52764715950605,357.1084419955928L506.56330298926713,385.1762278244723L508.5807508062396,339.77996582142043L510.6291522449527,266.03305635482997L521.3846253991554,403.01769526729464L523.3929692097337,206.2024567006217L525.399492219033,132.8484090566752L527.4096568308902,211.75248574150604L529.4216422440262,295.70198980563026L531.7031062464328,264.01968160210913L534.0992807294074,281.99096815973724L536.393490340766,225.40790402734717L538.3963717475077,388.058796733294L540.3865075452974,158.26787091407513L542.3930305545967,186.14160616050282L544.4031951664538,313.7277386619265L546.6810175663028,-108.30627225950195L551.3185984235491,419.4797995416983L553.6091664323501,306.46301236199605L555.8833472296415,406.25988557123736L558.0610255591532,188.22090059053994L570.0127651535644,295.98925668546764L572.0356753743735,9.458445617291847L574.0585855951826,325.4171081835855L576.0742126108762,362.00797251812435L578.088018825291,176.18644417695936L580.0890794307539,199.32245514625453L582.0937816387744,341.14738759539904L584.1003046480738,398.1546225912698L586.1195732663252,319.6812638434328L588.1352002820188,438.7787297252309L590.1508272977125,284.16295044479773L592.1609919095696,132.51372265867755L594.1620525150324,312.16388597662586L596.1612923192164,95.04074305081129L598.1550697195637,272.7840618550616L600.1615927288632,219.22340744525536L602.1735781419991,347.8497951042381L604.1709971449043,337.76576800802945L615.0029439528189,262.2785528719939L617.0112877633971,345.6891953741285L619.0706140097834,366.43603892400415L621.1026282369868,416.00132769290275L623.1255384577959,402.28834660143684L625.1375238709318,15.145233670905979L627.1750005019718,328.07837197821596L629.2088355304539,38.07510535415519L631.2372081550997,300.8305182537312L633.2528351707933,369.2447989319261L635.281207795439,185.36527288922525L637.2840892021807,175.43278248596198L639.5036459611061,328.9442037444197L641.8688668223402,338.6445910386759L644.1466892221891,423.4837395106678L646.3607835772782,223.1605181613383L648.374589791693,312.6848927338486L650.3902168073865,-121.17819290504964L661.515312621197,215.87663699490054L663.5382228420062,410.12990281325267L665.5593122615364,162.18324534609405L667.5749392772301,-413.784641428716L669.5923870942026,442.0850521215968L671.611655712454,294.62270473697004L673.6418491383786,348.28352937152914L675.6611177566299,330.3975792406652L677.6749239710447,301.6477520285423L679.6723429739499,317.3732894885398L681.6734035794126,258.6246872620187L683.6781057874332,115.6948893927014L685.6828079954537,289.85130979605503L687.6820477996376,313.86089678422394L689.6703627961485,300.0741816155556L691.6732442028901,-31.386426497295755L693.6579175968432,153.2621094473099L695.6589782023061,344.26903224651954L706.3124864848929,345.58560196522444L708.3044430839615,225.83903817115726L710.3364573111647,341.2459397576979L712.3211307051179,390.195897145972L714.3021624965133,248.16594308975993L716.2722694802355,263.00548379713285L718.266046880583,403.4541933349045L720.263465883488,381.3442911678987L722.2572432838355,326.65609508115836L724.2546622867407,380.3921502668658L726.2375148794149,400.3807772331714L728.2495002925507,315.69357230797885L730.245098494177,152.40788470714892L732.2406966958033,355.75163583366776L734.2271908910353,269.21091230854273L736.2136850862673,137.64079204468126L738.202000082778,428.3977297127015L740.1975982844043,254.72768204768556L751.2170876240411,182.11596030459634L753.4985516264479,442.5668442467157L755.5378490587666,271.6876889245318L757.5552968757391,305.9115897718232L759.5672822888752,216.87854500759627L761.5719844968955,236.93486871402882L763.5930739164259,208.43736571510675L765.603238528283,222.16268804014513L767.61340314014,398.8430426947075L769.6181053481606,396.9219723255615L771.6191659536235,282.227560690582L773.6184057578074,292.2471458774959L775.6085415555971,319.45932740429555L777.6114229623387,247.60710360059272L779.6033795614073,312.8210063921892L781.5916945579181,236.09158693959714L783.6182463812848,343.69866990796896L785.6138445829112,323.0524361720677" fill="none"></path></g></g></g></g></g></g><g transform="translate(51, 376)" clip-path="url(#clip_1)"><clipPath id="clip_1"><rect width="852" height="23"></rect></clipPath><g><g><line x1="0" y1="0" x2="0" y2="5" style="visibility: inherit;" fill="rgb(0, 0, 0)" stroke="rgb(204, 204, 204)" stroke-width="1px"></line><line x1="65.54884603881837" y1="0" x2="65.54884603881837" y2="5" style="visibility: inherit;" fill="rgb(0, 0, 0)" stroke="rgb(204, 204, 204)" stroke-width="1px"></line><line x1="131.09769207763674" y1="0" x2="131.09769207763674" y2="5" style="visibility: inherit;" fill="rgb(0, 0, 0)" stroke="rgb(204, 204, 204)" stroke-width="1px"></line><line x1="196.64653811645508" y1="0" x2="196.64653811645508" y2="5" style="visibility: inherit;" fill="rgb(0, 0, 0)" stroke="rgb(204, 204, 204)" stroke-width="1px"></line><line x1="262.1953841552735" y1="0" x2="262.1953841552735" y2="5" style="visibility: inherit;" fill="rgb(0, 0, 0)" stroke="rgb(204, 204, 204)" stroke-width="1px"></line><line x1="327.7442301940918" y1="0" x2="327.7442301940918" y2="5" style="visibility: inherit;" fill="rgb(0, 0, 0)" stroke="rgb(204, 204, 204)" stroke-width="1px"></line><line x1="393.2930762329102" y1="0" x2="393.2930762329102" y2="5" style="visibility: inherit;" fill="rgb(0, 0, 0)" stroke="rgb(204, 204, 204)" stroke-width="1px"></line><line x1="458.8419222717285" y1="0" x2="458.8419222717285" y2="5" style="visibility: inherit;" fill="rgb(0, 0, 0)" stroke="rgb(204, 204, 204)" stroke-width="1px"></line><line x1="524.390768310547" y1="0" x2="524.390768310547" y2="5" style="visibility: inherit;" fill="rgb(0, 0, 0)" stroke="rgb(204, 204, 204)" stroke-width="1px"></line><line x1="589.9396143493652" y1="0" x2="589.9396143493652" y2="5" style="visibility: inherit;" fill="rgb(0, 0, 0)" stroke="rgb(204, 204, 204)" stroke-width="1px"></line><line x1="655.4884603881835" y1="0" x2="655.4884603881835" y2="5" style="visibility: inherit;" fill="rgb(0, 0, 0)" stroke="rgb(204, 204, 204)" stroke-width="1px"></line><line x1="721.037306427002" y1="0" x2="721.037306427002" y2="5" style="visibility: inherit;" fill="rgb(0, 0, 0)" stroke="rgb(204, 204, 204)" stroke-width="1px"></line><line x1="786.5861524658203" y1="0" x2="786.5861524658203" y2="5" style="visibility: inherit;" fill="rgb(0, 0, 0)" stroke="rgb(204, 204, 204)" stroke-width="1px"></line><line x1="852.1349985046387" y1="0" x2="852.1349985046387" y2="5" style="visibility: inherit;" fill="rgb(0, 0, 0)" stroke="rgb(204, 204, 204)" stroke-width="1px"></line></g><g transform="translate(0, 8)"><text style="text-anchor: middle; visibility: hidden; font-family: Roboto, sans-serif; font-size: 12px; font-weight: 200;" x="0" y="0" dx="0em" dy="0.95em" fill="rgb(255, 255, 255)" stroke="none" stroke-width="1px">-0.01</text><text style="text-anchor: middle; visibility: inherit; font-family: Roboto, sans-serif; font-size: 12px; font-weight: 200;" x="65.54884603881837" y="0" dx="0em" dy="0.95em" fill="rgb(255, 255, 255)" stroke="none" stroke-width="1px">0</text><text style="text-anchor: middle; visibility: inherit; font-family: Roboto, sans-serif; font-size: 12px; font-weight: 200;" x="131.09769207763674" y="0" dx="0em" dy="0.95em" fill="rgb(255, 255, 255)" stroke="none" stroke-width="1px">0.01</text><text style="text-anchor: middle; visibility: inherit; font-family: Roboto, sans-serif; font-size: 12px; font-weight: 200;" x="196.64653811645508" y="0" dx="0em" dy="0.95em" fill="rgb(255, 255, 255)" stroke="none" stroke-width="1px">0.02</text><text style="text-anchor: middle; visibility: inherit; font-family: Roboto, sans-serif; font-size: 12px; font-weight: 200;" x="262.1953841552735" y="0" dx="0em" dy="0.95em" fill="rgb(255, 255, 255)" stroke="none" stroke-width="1px">0.03</text><text style="text-anchor: middle; visibility: inherit; font-family: Roboto, sans-serif; font-size: 12px; font-weight: 200;" x="327.7442301940918" y="0" dx="0em" dy="0.95em" fill="rgb(255, 255, 255)" stroke="none" stroke-width="1px">0.04</text><text style="text-anchor: middle; visibility: inherit; font-family: Roboto, sans-serif; font-size: 12px; font-weight: 200;" x="393.2930762329102" y="0" dx="0em" dy="0.95em" fill="rgb(255, 255, 255)" stroke="none" stroke-width="1px">0.05</text><text style="text-anchor: middle; visibility: inherit; font-family: Roboto, sans-serif; font-size: 12px; font-weight: 200;" x="458.8419222717285" y="0" dx="0em" dy="0.95em" fill="rgb(255, 255, 255)" stroke="none" stroke-width="1px">0.06</text><text style="text-anchor: middle; visibility: inherit; font-family: Roboto, sans-serif; font-size: 12px; font-weight: 200;" x="524.390768310547" y="0" dx="0em" dy="0.95em" fill="rgb(255, 255, 255)" stroke="none" stroke-width="1px">0.07</text><text style="text-anchor: middle; visibility: inherit; font-family: Roboto, sans-serif; font-size: 12px; font-weight: 200;" x="589.9396143493652" y="0" dx="0em" dy="0.95em" fill="rgb(255, 255, 255)" stroke="none" stroke-width="1px">0.08</text><text style="text-anchor: middle; visibility: inherit; font-family: Roboto, sans-serif; font-size: 12px; font-weight: 200;" x="655.4884603881835" y="0" dx="0em" dy="0.95em" fill="rgb(255, 255, 255)" stroke="none" stroke-width="1px">0.09</text><text style="text-anchor: middle; visibility: inherit; font-family: Roboto, sans-serif; font-size: 12px; font-weight: 200;" x="721.037306427002" y="0" dx="0em" dy="0.95em" fill="rgb(255, 255, 255)" stroke="none" stroke-width="1px">0.1</text><text style="text-anchor: middle; visibility: inherit; font-family: Roboto, sans-serif; font-size: 12px; font-weight: 200;" x="786.5861524658203" y="0" dx="0em" dy="0.95em" fill="rgb(255, 255, 255)" stroke="none" stroke-width="1px">0.11</text><text style="text-anchor: middle; visibility: hidden; font-family: Roboto, sans-serif; font-size: 12px; font-weight: 200;" x="852.1349985046387" y="0" dx="0em" dy="0.95em" fill="rgb(255, 255, 255)" stroke="none" stroke-width="1px">0.12</text></g><line x1="0" y1="0" x2="852.1349985046387" y2="0" fill="rgb(0, 0, 0)" stroke="rgb(204, 204, 204)" stroke-width="1px"></line></g></g></g></g></svg>